<svg width="235" height="32" viewBox="0 0 235 32" fill="none" xmlns="http://www.w3.org/2000/svg">
<path d="M129.055 7.79764C130.618 7.79764 131.895 7.95947 132.881 8.28069C133.869 8.60678 134.637 8.99338 135.192 9.46667C135.741 9.93052 136.122 10.4498 136.339 11.015C136.55 11.5779 136.657 12.1141 136.657 12.6141C136.657 13.1697 136.53 13.7687 136.268 14.4088C136.015 15.0488 135.605 15.6576 135.044 16.2205C134.479 16.7904 133.737 17.3074 132.821 17.7882C131.909 18.2688 130.777 18.6312 129.438 18.9016L129.369 19.165C130.087 19.1866 130.777 19.2905 131.457 19.4813C132.131 19.6674 132.717 19.9307 133.213 20.252C133.757 20.6118 134.194 21.0877 134.536 21.6771C134.876 22.2616 135.045 22.9766 135.045 23.8149C135.045 25.0082 134.731 26.1144 134.097 27.1192C133.464 28.1362 132.591 28.9961 131.496 29.7039C130.322 30.455 129.076 31.013 127.746 31.373C126.42 31.7329 124.894 31.9141 123.177 31.9141C120.941 31.9141 119.138 31.4504 117.764 30.5082C116.391 29.5758 115.707 28.4114 115.707 27.0249C115.707 26.2545 115.958 25.5999 116.456 25.0636C116.961 24.5251 117.633 24.2618 118.472 24.2618C119.339 24.2618 120.044 24.5033 120.577 24.9912C121.114 25.4839 121.381 26.1144 121.381 26.8824C121.381 27.4429 121.289 27.996 121.107 28.542C120.927 29.0879 120.769 29.5275 120.641 29.8584C120.888 29.9962 121.195 30.1216 121.548 30.2328C121.9 30.3391 122.321 30.3947 122.808 30.3947C123.543 30.3947 124.269 30.2424 124.979 29.943C125.694 29.6338 126.314 29.1989 126.859 28.6242C127.45 27.9791 127.916 27.2521 128.249 26.4236C128.573 25.5951 128.742 24.5178 128.742 23.1941C128.742 22.3487 128.51 21.653 128.046 21.0877C127.584 20.525 126.702 20.2423 125.393 20.2423H123.278L123.742 18.3051H125.242C126.856 18.3051 128.145 17.7568 129.111 16.6769C130.078 15.5924 130.565 14.0949 130.565 12.1818C130.565 11.3097 130.332 10.6141 129.862 10.1019C129.39 9.58507 128.655 9.32663 127.641 9.32663C127.15 9.32663 126.634 9.39185 126.091 9.53433C125.539 9.6768 125.093 9.84351 124.736 10.0294C124.858 10.4015 125.003 10.8605 125.166 11.4159C125.328 11.9643 125.408 12.4741 125.408 12.9426C125.408 13.7155 125.155 14.3509 124.639 14.834C124.127 15.317 123.432 15.5587 122.567 15.5587C121.753 15.5587 121.091 15.2977 120.604 14.7639C120.121 14.2277 119.87 13.5779 119.87 12.8146C119.87 11.5537 120.761 10.4015 122.528 9.3629C124.296 8.32412 126.475 7.79764 129.055 7.79764Z" fill="white"/>
<path d="M152.163 16.8726C152.163 15.7325 151.899 14.8314 151.379 14.1648C150.851 13.5053 150.181 13.1743 149.377 13.1743C148.735 13.1743 148.123 13.2951 147.552 13.5391C146.979 13.7855 146.366 14.271 145.727 15.0029C145.646 15.3363 145.507 15.9885 145.314 16.9474C145.115 17.9063 145.015 19.0925 145.015 20.4935C145.015 21.9258 145.251 23.0464 145.73 23.8509C146.203 24.6553 146.833 25.0539 147.617 25.0539C148.846 25.0539 149.907 24.2617 150.811 22.6673C151.709 21.0731 152.163 19.1406 152.163 16.8726ZM147.293 26.4404C144.831 26.4404 142.868 25.7544 141.397 24.3679C139.933 22.9861 139.198 21.1577 139.198 18.8726C139.198 14.5102 140.847 10.7709 144.146 7.6671C147.437 4.5535 151.788 2.69353 157.197 2.08249L157.281 3.71281L155.486 4.00523C154.101 4.36256 152.901 4.86024 151.869 5.49795C150.845 6.13811 149.979 6.84332 149.266 7.61148C148.561 8.37003 147.977 9.21529 147.496 10.1526C147.019 11.0777 146.593 12.0608 146.223 13.0874C146.959 12.4836 147.829 11.9812 148.857 11.568C149.88 11.1575 151.096 10.9497 152.513 10.9497C154.161 10.9497 155.542 11.498 156.658 12.5875C157.769 13.672 158.329 15.0923 158.329 16.829C158.329 19.4306 157.266 21.6843 155.14 23.5924C153.01 25.4935 150.396 26.4404 147.293 26.4404Z" fill="white"/>
<path d="M166.497 31.9141C164.315 31.9141 162.475 31.4478 160.989 30.501C159.499 29.5517 158.748 28.4259 158.748 27.1192C158.748 26.3488 159.001 25.6965 159.504 25.1627C160.006 24.6287 160.676 24.3607 161.518 24.3607C162.383 24.3607 163.092 24.6047 163.624 25.0877C164.161 25.5733 164.425 26.2013 164.425 26.9672C164.425 27.5057 164.334 28.0806 164.145 28.6845C163.955 29.2931 163.804 29.7666 163.683 30.1C163.872 30.1507 164.179 30.2207 164.626 30.2909C165.068 30.3608 165.498 30.3947 165.924 30.3947C166.487 30.3947 167.091 30.2159 167.754 29.8656C168.411 29.5058 169.006 28.9984 169.54 28.3342C170.123 27.6192 170.591 26.8076 170.945 25.9188C171.292 25.02 171.47 23.9163 171.47 22.5951C171.47 21.3679 171.163 20.3896 170.53 19.6651C169.904 18.9403 169.026 18.578 167.877 18.578C167.325 18.578 166.825 18.6505 166.393 18.7906C165.964 18.9332 165.545 19.1144 165.129 19.3461C164.716 19.5877 164.36 19.8196 164.065 20.0491C163.767 20.2834 163.458 20.5563 163.128 20.8994L161.908 20.4573L166.132 8.31696H180.056L179.023 12.8267H166.465L164.645 18.2641C165.66 17.6818 166.596 17.2664 167.44 17.0152C168.284 16.7616 169.207 16.6359 170.209 16.6359C171.099 16.6359 171.952 16.7278 172.778 16.9065C173.604 17.0853 174.396 17.4306 175.167 17.9282C175.909 18.4186 176.51 19.037 176.965 19.805C177.415 20.5659 177.642 21.4839 177.642 22.5661C177.642 25.1845 176.542 27.4043 174.36 29.211C172.175 31.0179 169.553 31.9141 166.497 31.9141Z" fill="white"/>
<path d="M171.028 6.75718H173.353C173.353 6.75718 176.476 3.00831 179.167 3.17258C179.167 3.17258 182.788 2.75459 183.467 11.8418C183.467 11.8418 183.045 17.2573 186.251 17.0062C186.251 17.0062 187.929 17.1727 187.929 14.5858C187.929 14.5858 188.184 8.50591 190.208 5.58568C190.208 5.58568 190.711 4.50835 191.05 6.75718C191.05 6.75718 192.394 13.5883 192.985 15.0062C192.985 15.0062 193.829 17.9241 196.269 16.3395C196.269 16.3395 196.777 15.7525 196.777 14.2549C196.777 14.2549 196.358 8.09052 199.473 4.00595C199.473 4.00595 201.493 7.75482 202.507 14.1728C202.507 14.1728 202.844 18.0037 206.549 16.2574C206.549 16.2574 207.986 15.0062 207.227 13.8394C207.227 13.8394 205.96 12.5036 205.709 10.9216L204.442 5.8368C204.442 5.8368 203.096 -0.0787785 200.649 0.0928025C200.649 0.0928025 197.365 0.00823104 195.346 7.75482C195.346 7.75482 195.095 8.25479 194.501 5.50583C194.501 5.50583 193.665 0.505908 191.472 0.592765C191.472 0.592765 190.127 0.423774 188.269 4.09037C188.269 4.09037 187.403 5.75955 186.793 7.56389C186.793 7.56389 186.517 7.99878 186.405 7.23551C186.405 7.23551 186.025 3.00587 183.566 1.41897C183.566 1.41897 180.224 -1.0112 176.523 1.06377C176.523 1.06377 173.343 2.91886 171.028 6.75718Z" fill="white"/>
<path d="M231.892 5.153C231.892 5.153 232.873 3.16503 230.962 2.15292C230.962 2.15292 226.992 -0.62011 218.585 0.300271C218.585 0.300271 209.334 0.672234 206.762 6.35833C206.762 6.35833 204.149 11.3464 210.595 15.1797C210.595 15.1797 213.395 17.0736 220.217 16.844C220.217 16.844 226.057 16.9334 230.167 14.4406C230.167 14.4406 233.205 12.5493 234.142 9.40656C234.142 9.40656 227.691 12.7787 220.454 12.728C220.454 12.728 213.119 12.9622 209.803 10.1965C209.803 10.1965 208.773 9.26896 208.49 8.71338C208.49 8.71338 210.268 4.4621 220.454 4.14088C220.454 4.14088 226.947 4.31962 229.139 4.92107C229.139 4.92107 229.751 5.02012 229.938 5.29303C229.938 5.29303 230.82 6.30987 231.892 5.153Z" fill="white"/>
<path d="M11.3985 16.8884C10.5778 17.1814 9.72276 17.4405 8.83393 17.6652C7.62235 17.9875 6.85556 18.3049 6.53328 18.6177C6.20094 18.94 6.03484 19.3064 6.03484 19.7166C6.03484 20.1856 6.19835 20.5691 6.52566 20.8669C6.85313 21.1651 7.33404 21.314 7.96932 21.314C8.6337 21.314 9.25145 21.1528 9.82303 20.8305C10.3946 20.5082 10.7999 20.1147 11.0393 19.6509C11.2787 19.1869 11.3985 18.5835 11.3985 17.8409V16.8884ZM6.22532 13.7524L0.524746 13.1514C0.739755 12.155 1.04985 11.371 1.45534 10.7995C1.86052 10.228 2.44444 9.73211 3.2065 9.31215C3.75355 9.00937 4.5057 8.77485 5.46326 8.60861C6.42067 8.44266 7.45625 8.35946 8.57016 8.35946C10.358 8.35946 11.7941 8.45973 12.8784 8.65996C13.9631 8.86034 14.8664 9.27802 15.5896 9.91283C16.0975 10.3525 16.4984 10.9754 16.7914 11.7813C17.0844 12.5874 17.2309 13.3566 17.2309 14.0894V20.9623C17.2309 21.6951 17.2772 22.2691 17.3702 22.684C17.463 23.0996 17.6656 23.6293 17.9783 24.2741H12.3803C12.1555 23.8737 12.0088 23.5686 11.9408 23.3585C11.8723 23.1482 11.8037 22.8186 11.7354 22.3691C10.9537 23.1215 10.177 23.6588 9.40551 23.9811C8.35042 24.411 7.12421 24.626 5.72718 24.626C3.87103 24.626 2.46151 24.1961 1.49922 23.3362C0.536784 22.4766 0.0558701 21.4165 0.0558701 20.1563C0.0558701 18.9743 0.402536 18.0021 1.09633 17.2402C1.78996 16.4782 3.06966 15.9116 4.93587 15.5403C7.17282 15.0909 8.62379 14.7759 9.28833 14.595C9.95256 14.4143 10.6559 14.1774 11.3985 13.8842C11.3985 13.1514 11.2467 12.6386 10.9441 12.3454C10.6413 12.0524 10.1087 11.9058 9.34684 11.9058C8.36977 11.9058 7.63697 12.0622 7.14859 12.3749C6.76764 12.6191 6.45998 13.0782 6.22532 13.7524Z" fill="white"/>
<path d="M20.8067 2.79098H26.9028V13.8804L31.3578 8.71144H38.6998L33.1168 14.1632L39.0223 24.2744H32.3021L29.1498 18.0358L26.9028 20.2299V24.2744H20.8067V2.79098Z" fill="white"/>
<path d="M51.4346 16.8884C50.6139 17.1814 49.7589 17.4405 48.87 17.6652C47.6585 17.9875 46.8917 18.3049 46.5694 18.6177C46.237 18.94 46.071 19.3064 46.071 19.7166C46.071 20.1856 46.2345 20.5691 46.5618 20.8669C46.8892 21.1651 47.3702 21.314 48.0054 21.314C48.6698 21.314 49.2876 21.1528 49.8591 20.8305C50.4307 20.5082 50.8361 20.1147 51.0754 19.6509C51.315 19.1869 51.4346 18.5835 51.4346 17.8409V16.8884ZM46.2614 13.7524L40.5609 13.1514C40.7759 12.155 41.086 11.371 41.4914 10.7995C41.8966 10.228 42.4806 9.73211 43.2426 9.31215C43.7897 9.00937 44.5418 8.77485 45.4994 8.60861C46.4568 8.44266 47.4924 8.35946 48.6063 8.35946C50.3942 8.35946 51.8302 8.45973 52.9145 8.65996C53.9992 8.86034 54.9025 9.27802 55.6257 9.91283C56.1336 10.3525 56.5345 10.9754 56.8275 11.7813C57.1206 12.5874 57.267 13.3566 57.267 14.0894V20.9623C57.267 21.6951 57.3133 22.2691 57.4063 22.684C57.4991 23.0996 57.7017 23.6293 58.0144 24.2741H52.4164C52.1916 23.8737 52.0449 23.5686 51.9769 23.3585C51.9084 23.1482 51.8398 22.8186 51.7715 22.3691C50.9898 23.1215 50.2131 23.6588 49.4416 23.9811C48.3865 24.411 47.1603 24.626 45.7633 24.626C43.9071 24.626 42.4976 24.1961 41.5353 23.3362C40.5729 22.4766 40.092 21.4165 40.092 20.1563C40.092 18.9743 40.4386 18.0021 41.1324 17.2402C41.8261 16.4782 43.1058 15.9116 44.972 15.5403C47.2089 15.0909 48.6599 14.7759 49.3244 14.595C49.9887 14.4143 50.6921 14.1774 51.4346 13.8842C51.4346 13.1514 51.2828 12.6386 50.9802 12.3454C50.6774 12.0524 50.1449 11.9058 49.383 11.9058C48.4059 11.9058 47.6731 12.0622 47.1847 12.3749C46.8038 12.6191 46.4961 13.0782 46.2614 13.7524Z" fill="white"/>
<path d="M59.7877 19.9512L65.708 19.3943C65.9522 20.0977 66.2942 20.6008 66.7338 20.9038C67.1736 21.2067 67.7598 21.3582 68.4926 21.3582C69.2933 21.3582 69.914 21.1875 70.3535 20.8459C70.6954 20.5923 70.8665 20.2753 70.8665 19.8949C70.8665 19.4656 70.6415 19.134 70.1924 18.8997C69.8699 18.7339 69.0149 18.5292 67.628 18.2851C65.5565 17.9243 64.1182 17.5901 63.3121 17.2824C62.5061 16.9752 61.8268 16.4555 61.2752 15.7234C60.7231 14.9917 60.4472 14.1569 60.4472 13.22C60.4472 12.195 60.7449 11.3118 61.3409 10.5701C61.9368 9.82842 62.7574 9.27436 63.8029 8.90849C64.8482 8.54262 66.2503 8.35946 68.0089 8.35946C69.8649 8.35946 71.2351 8.50118 72.1194 8.78445C73.0034 9.06788 73.741 9.50765 74.3321 10.1033C74.9231 10.6994 75.4142 11.5055 75.805 12.5213L70.1483 13.0782C70.0019 12.58 69.7575 12.2136 69.4155 11.9791C68.9465 11.6666 68.3798 11.5102 67.7156 11.5102C67.0415 11.5102 66.5506 11.6299 66.243 11.8688C65.9353 12.1079 65.7813 12.398 65.7813 12.7393C65.7813 13.12 65.9766 13.4075 66.3675 13.6026C66.758 13.7976 67.608 13.9733 68.9174 14.1295C70.9005 14.3538 72.376 14.6662 73.3432 15.0665C74.3103 15.4667 75.0503 16.0375 75.5632 16.7791C76.0763 17.5212 76.3324 18.336 76.3324 19.2239C76.3324 20.1221 76.0613 20.9955 75.5193 21.8444C74.977 22.6936 74.122 23.3694 72.9547 23.8723C71.7871 24.3744 70.1973 24.626 68.1846 24.626C65.3416 24.626 63.3168 24.2208 62.1103 23.4095C60.9037 22.5989 60.1296 21.4458 59.7877 19.9512Z" fill="white"/>
<path d="M79.3952 8.71144H85.3595V24.2744H79.3952V8.71144ZM79.3952 2.79098H85.3595V6.85026H79.3952V2.79098Z" fill="white"/>
<path d="M99.7797 16.8884C98.9589 17.1814 98.1039 17.4405 97.2151 17.6652C96.0035 17.9875 95.2367 18.3049 94.9145 18.6177C94.5821 18.94 94.416 19.3064 94.416 19.7166C94.416 20.1856 94.5795 20.5691 94.9068 20.8669C95.2343 21.1651 95.7152 21.314 96.3505 21.314C97.0149 21.314 97.6326 21.1528 98.2042 20.8305C98.7758 20.5082 99.1811 20.1147 99.4205 19.6509C99.6599 19.1869 99.7797 18.5835 99.7797 17.8409V16.8884ZM94.6065 13.7524L88.9059 13.1514C89.1209 12.155 89.431 11.371 89.8365 10.7995C90.2417 10.228 90.8256 9.73211 91.5877 9.31215C92.1347 9.00937 92.8869 8.77485 93.8444 8.60861C94.8018 8.44266 95.8376 8.35946 96.9513 8.35946C98.7392 8.35946 100.175 8.45973 101.26 8.65996C102.344 8.86034 103.248 9.27802 103.971 9.91283C104.479 10.3525 104.88 10.9754 105.173 11.7813C105.466 12.5874 105.612 13.3566 105.612 14.0894V20.9623C105.612 21.6951 105.658 22.2691 105.751 22.684C105.844 23.0996 106.047 23.6293 106.359 24.2741H100.761C100.537 23.8737 100.39 23.5686 100.322 23.3585C100.253 23.1482 100.185 22.8186 100.117 22.3691C99.3349 23.1215 98.5582 23.6588 97.7867 23.9811C96.7316 24.411 95.5054 24.626 94.1084 24.626C92.2522 24.626 90.8427 24.1961 89.8804 23.3362C88.918 22.4766 88.437 21.4165 88.437 20.1563C88.437 18.9743 88.7837 18.0021 89.4775 17.2402C90.1711 16.4782 91.4508 15.9116 93.317 15.5403C95.554 15.0909 97.005 14.7759 97.6695 14.595C98.3337 14.4143 99.0371 14.1774 99.7797 13.8842C99.7797 13.1514 99.6281 12.6386 99.3253 12.3454C99.0225 12.0524 98.4899 11.9058 97.728 11.9058C96.7509 11.9058 96.0181 12.0622 95.5298 12.3749C95.1488 12.6191 94.8412 13.0782 94.6065 13.7524Z" fill="white"/>
</svg>
