<svg width="147" height="20" viewBox="0 0 147 20" fill="none" xmlns="http://www.w3.org/2000/svg">
<path d="M80.9808 4.87353C81.9575 4.87353 82.7555 4.97467 83.3721 5.17543C83.9896 5.37924 84.4697 5.62086 84.8161 5.91667C85.1596 6.20658 85.3974 6.53115 85.5332 6.88438C85.6654 7.23619 85.7319 7.57134 85.7319 7.88381C85.7319 8.23105 85.6525 8.60543 85.4887 9.00553C85.331 9.40553 85.0743 9.786 84.7241 10.1378C84.3708 10.494 83.9073 10.8171 83.3344 11.1176C82.7645 11.418 82.0572 11.6445 81.2201 11.8135L81.1771 11.9781C81.6255 11.9916 82.0572 12.0566 82.4822 12.1758C82.9034 12.2921 83.2695 12.4567 83.5798 12.6575C83.9194 12.8824 84.1926 13.1798 84.4062 13.5482C84.6191 13.9135 84.7248 14.3604 84.7248 14.8843C84.7248 15.6301 84.5285 16.3215 84.1322 16.9495C83.7367 17.5851 83.1909 18.1226 82.5063 18.565C81.7726 19.0344 80.9937 19.3831 80.1625 19.6081C79.3337 19.8331 78.3803 19.9463 77.3069 19.9463C75.9097 19.9463 74.7827 19.6565 73.9238 19.0676C73.0655 18.4849 72.6382 17.7571 72.6382 16.8906C72.6382 16.4091 72.7952 15.9999 73.1062 15.6648C73.4218 15.3282 73.8421 15.1636 74.3661 15.1636C74.9081 15.1636 75.3488 15.3146 75.6818 15.6195C76.0177 15.9274 76.1845 16.3215 76.1845 16.8015C76.1845 17.1518 76.1271 17.4975 76.0131 17.8388C75.9006 18.1799 75.8018 18.4547 75.7218 18.6615C75.8765 18.7476 76.0682 18.826 76.2887 18.8955C76.5091 18.9619 76.7718 18.9967 77.0767 18.9967C77.5357 18.9967 77.9894 18.9015 78.4332 18.7144C78.8801 18.5211 79.268 18.2493 79.6085 17.8901C79.9776 17.487 80.269 17.0326 80.4773 16.5148C80.6796 15.997 80.7853 15.3236 80.7853 14.4963C80.7853 13.9679 80.6403 13.5331 80.3504 13.1798C80.0614 12.8281 79.5103 12.6514 78.6921 12.6514H77.3703L77.6602 11.4407H78.5978C79.6061 11.4407 80.4123 11.098 81.0155 10.4231C81.6201 9.74524 81.9243 8.80934 81.9243 7.61362C81.9243 7.06857 81.7786 6.63381 81.485 6.31372C81.1899 5.99067 80.7309 5.82915 80.0968 5.82915C79.7903 5.82915 79.4674 5.86991 79.1284 5.95896C78.7834 6.048 78.5048 6.15219 78.2815 6.26838C78.3577 6.50096 78.4482 6.78781 78.5501 7.13496C78.6513 7.47772 78.7012 7.79629 78.7012 8.08915C78.7012 8.57219 78.5434 8.96934 78.2211 9.27124C77.901 9.57315 77.4662 9.72419 76.9258 9.72419C76.417 9.72419 76.0033 9.56105 75.6992 9.22743C75.3972 8.89229 75.2401 8.48619 75.2401 8.00915C75.2401 7.22105 75.7973 6.50096 76.9016 5.85181C78.0067 5.20258 79.3684 4.87353 80.9808 4.87353Z" fill="#F36F21"/>
<path d="M95.4232 10.545C95.4232 9.83243 95.2579 9.26928 94.9334 8.85262C94.6035 8.44043 94.1845 8.23357 93.6818 8.23357C93.281 8.23357 92.8982 8.30909 92.5412 8.46157C92.1834 8.61557 91.7999 8.919 91.4006 9.37643C91.35 9.58481 91.2633 9.99243 91.1425 10.5918C91.0179 11.1911 90.9559 11.9324 90.9559 12.808C90.9559 13.7033 91.1033 14.4037 91.4029 14.9064C91.698 15.4092 92.0921 15.6583 92.582 15.6583C93.3504 15.6583 94.0131 15.1632 94.5785 14.1667C95.1395 13.1703 95.4232 11.9625 95.4232 10.545ZM92.3797 16.5249C90.8405 16.5249 89.6139 16.0961 88.6945 15.2296C87.7797 14.3659 87.3199 13.2232 87.3199 11.795C87.3199 9.06852 88.351 6.73147 90.4125 4.79157C92.4696 2.84557 95.1892 1.68309 98.5695 1.30119L98.6222 2.32014L97.4999 2.5029C96.6347 2.72624 95.8844 3.03728 95.2398 3.43586C94.5997 3.83595 94.0584 4.27671 93.6123 4.75681C93.1722 5.2309 92.8069 5.75919 92.5065 6.345C92.2083 6.92319 91.9419 7.53766 91.7109 8.17928C92.1705 7.80186 92.7148 7.48785 93.3572 7.22966C93.9965 6.97309 94.7566 6.84319 95.642 6.84319C96.6718 6.84319 97.5353 7.18585 98.2327 7.86681C98.9272 8.54462 99.2767 9.43233 99.2767 10.5178C99.2767 12.1438 98.6124 13.5523 97.2839 14.7449C95.9523 15.9331 94.3188 16.5249 92.3797 16.5249Z" fill="#F36F21"/>
<path d="M104.382 19.9463C103.019 19.9463 101.868 19.6549 100.94 19.0631C100.008 18.4698 99.5387 17.7662 99.5387 16.9495C99.5387 16.468 99.6972 16.0603 100.011 15.7267C100.325 15.393 100.744 15.2254 101.27 15.2254C101.811 15.2254 102.254 15.3779 102.587 15.6798C102.922 15.9833 103.087 16.3758 103.087 16.8545C103.087 17.1911 103.03 17.5504 102.912 17.9278C102.794 18.3082 102.699 18.6041 102.623 18.8125C102.741 18.8442 102.933 18.8879 103.213 18.9318C103.489 18.9755 103.758 18.9967 104.024 18.9967C104.376 18.9967 104.753 18.885 105.168 18.666C105.578 18.4411 105.95 18.124 106.284 17.7089C106.649 17.262 106.941 16.7548 107.162 16.1992C107.379 15.6375 107.49 14.9477 107.49 14.1219C107.49 13.355 107.298 12.7435 106.903 12.2907C106.511 11.8377 105.962 11.6112 105.245 11.6112C104.9 11.6112 104.587 11.6566 104.317 11.7441C104.049 11.8332 103.787 11.9465 103.527 12.0913C103.269 12.2423 103.046 12.3872 102.862 12.5307C102.676 12.6771 102.483 12.8477 102.277 13.0621L101.514 12.7858L104.154 5.1981H112.856L112.211 8.01667H104.362L103.225 11.4151C103.859 11.0511 104.444 10.7915 104.971 10.6345C105.499 10.476 106.076 10.3974 106.702 10.3974C107.259 10.3974 107.791 10.4549 108.308 10.5666C108.824 10.6783 109.319 10.8941 109.801 11.2051C110.264 11.5116 110.64 11.8981 110.925 12.3781C111.206 12.8537 111.347 13.4274 111.347 14.1038C111.347 15.7403 110.66 17.1277 109.297 18.2569C107.931 19.3862 106.292 19.9463 104.382 19.9463Z" fill="#F36F21"/>
<path d="M107.214 4.22239H108.667C108.667 4.22239 110.619 1.87934 112.301 1.98201C112.301 1.98201 114.564 1.72077 114.988 7.40029C114.988 7.40029 114.725 10.785 116.728 10.628C116.728 10.628 117.777 10.7321 117.777 9.11524C117.777 9.11524 117.936 5.31534 119.202 3.4902C119.202 3.4902 119.516 2.81686 119.728 4.22239C119.728 4.22239 120.568 8.49182 120.937 9.37801C120.937 9.37801 121.465 11.2017 122.989 10.2113C122.989 10.2113 123.307 9.84448 123.307 8.90848C123.307 8.90848 123.045 5.05572 124.992 2.50286C124.992 2.50286 126.255 4.84591 126.888 8.85715C126.888 8.85715 127.099 11.2514 129.415 10.16C129.415 10.16 130.313 9.37801 129.838 8.64877C129.838 8.64877 129.046 7.81391 128.889 6.82515L128.097 3.64715C128.097 3.64715 127.257 -0.0500898 125.727 0.0571483C125.727 0.0571483 123.675 0.00429115 122.413 4.84591C122.413 4.84591 122.256 5.15839 121.884 3.44029C121.884 3.44029 121.362 0.315339 119.991 0.369625C119.991 0.369625 119.151 0.264006 117.989 2.55562C117.989 2.55562 117.448 3.59886 117.067 4.72658C117.067 4.72658 116.895 4.99839 116.825 4.52134C116.825 4.52134 116.587 1.87782 115.05 0.886006C115.05 0.886006 112.961 -0.632851 110.648 0.664006C110.648 0.664006 108.661 1.82343 107.214 4.22239Z" fill="#F36F21"/>
<path d="M145.254 3.22013C145.254 3.22013 145.867 1.97766 144.672 1.34509C144.672 1.34509 142.191 -0.388057 136.937 0.187182C136.937 0.187182 131.155 0.419658 129.548 3.97347C129.548 3.97347 127.915 7.09099 131.943 9.4868C131.943 9.4868 133.693 10.6705 137.957 10.527C137.957 10.527 141.607 10.5829 144.176 9.0249C144.176 9.0249 146.075 7.8428 146.66 5.87861C146.66 5.87861 142.628 7.98623 138.105 7.95451C138.105 7.95451 133.521 8.1009 131.448 6.37232C131.448 6.37232 130.804 5.79261 130.628 5.44537C130.628 5.44537 131.739 2.78832 138.105 2.58756C138.105 2.58756 142.163 2.69928 143.533 3.07518C143.533 3.07518 143.916 3.13709 144.032 3.30766C144.032 3.30766 144.584 3.94318 145.254 3.22013Z" fill="#F36F21"/>
<path d="M7.44547 10.5546C6.93251 10.7378 6.39813 10.8997 5.84261 11.0401C5.08537 11.2416 4.60613 11.44 4.4047 11.6355C4.19699 11.8369 4.09318 12.0659 4.09318 12.3222C4.09318 12.6154 4.19537 12.8551 4.39994 13.0412C4.60461 13.2276 4.90518 13.3206 5.30223 13.3206C5.71747 13.3206 6.10356 13.2199 6.4608 13.0184C6.81804 12.817 7.07137 12.5711 7.22099 12.2812C7.37061 11.9912 7.44547 11.6141 7.44547 11.15V10.5546ZM4.21223 8.59463L0.64937 8.21901C0.783751 7.59624 0.977561 7.10624 1.23099 6.7491C1.48423 6.39186 1.84918 6.08196 2.32547 5.81948C2.66737 5.63024 3.13747 5.48367 3.73594 5.37977C4.33432 5.27605 4.98156 5.22405 5.67775 5.22405C6.79518 5.22405 7.6927 5.28672 8.37042 5.41186C9.04832 5.5371 9.61289 5.79815 10.0649 6.19491C10.3823 6.46967 10.6329 6.85901 10.816 7.36272C10.9992 7.86653 11.0907 8.34729 11.0907 8.80529V13.1008C11.0907 13.5588 11.1197 13.9176 11.1778 14.1769C11.2358 14.4366 11.3624 14.7677 11.5578 15.1707H8.05908C7.91861 14.9204 7.82689 14.7298 7.78442 14.5984C7.74156 14.467 7.6987 14.261 7.65604 13.9801C7.16747 14.4503 6.68204 14.7861 6.19985 14.9876C5.54042 15.2562 4.77404 15.3906 3.90089 15.3906C2.7408 15.3906 1.85985 15.122 1.25842 14.5845C0.656895 14.0473 0.356323 13.3847 0.356323 12.5971C0.356323 11.8583 0.572989 11.2507 1.00661 10.7745C1.44013 10.2982 2.23994 9.94415 3.40632 9.71205C4.80442 9.4312 5.71128 9.23434 6.12661 9.12129C6.54175 9.00834 6.98137 8.86024 7.44547 8.67701C7.44547 8.21901 7.35061 7.89853 7.16147 7.71529C6.97223 7.53215 6.63937 7.44053 6.16318 7.44053C5.55251 7.44053 5.09451 7.53824 4.78928 7.73367C4.55118 7.88634 4.35889 8.17329 4.21223 8.59463Z" fill="#897F76"/>
<path d="M13.3256 1.74376H17.1357V8.67461L19.92 5.44404H24.5088L21.0194 8.85137L24.7103 15.1709H20.5102L18.54 11.2718L17.1357 12.6431V15.1709H13.3256V1.74376Z" fill="#897F76"/>
<path d="M32.468 10.5546C31.9551 10.7378 31.4207 10.8997 30.8652 11.0401C30.108 11.2416 29.6287 11.44 29.4273 11.6355C29.2196 11.8369 29.1158 12.0659 29.1158 12.3222C29.1158 12.6154 29.218 12.8551 29.4225 13.0412C29.6272 13.2276 29.9278 13.3206 30.3248 13.3206C30.74 13.3206 31.1261 13.2199 31.4834 13.0184C31.8406 12.817 32.094 12.5711 32.2436 12.2812C32.3933 11.9912 32.468 11.6141 32.468 11.15V10.5546ZM29.2348 8.59463L25.672 8.21901C25.8063 7.59624 26.0001 7.10624 26.2536 6.7491C26.5068 6.39186 26.8718 6.08196 27.348 5.81948C27.69 5.63024 28.16 5.48367 28.7585 5.37977C29.3569 5.27605 30.0041 5.22405 30.7003 5.22405C31.8178 5.22405 32.7153 5.28672 33.393 5.41186C34.0709 5.5371 34.6355 5.79815 35.0875 6.19491C35.4049 6.46967 35.6555 6.85901 35.8386 7.36272C36.0218 7.86653 36.1133 8.34729 36.1133 8.80529V13.1008C36.1133 13.5588 36.1422 13.9176 36.2003 14.1769C36.2583 14.4366 36.385 14.7677 36.5804 15.1707H33.0817C32.9412 14.9204 32.8495 14.7298 32.807 14.5984C32.7641 14.467 32.7213 14.261 32.6786 13.9801C32.19 14.4503 31.7046 14.7861 31.2224 14.9876C30.563 15.2562 29.7966 15.3906 28.9235 15.3906C27.7634 15.3906 26.8824 15.122 26.281 14.5845C25.6795 14.0473 25.3789 13.3847 25.3789 12.5971C25.3789 11.8583 25.5956 11.2507 26.0292 10.7745C26.4627 10.2982 27.2625 9.94415 28.4289 9.71205C29.827 9.4312 30.7339 9.23434 31.1492 9.12129C31.5643 9.00834 32.004 8.86024 32.468 8.67701C32.468 8.21901 32.3732 7.89853 32.184 7.71529C31.9948 7.53215 31.662 7.44053 31.1858 7.44053C30.5751 7.44053 30.1171 7.53824 29.8119 7.73367C29.5738 7.88634 29.3815 8.17329 29.2348 8.59463Z" fill="#897F76"/>
<path d="M37.6887 12.4689L41.3889 12.1208C41.5416 12.5604 41.7553 12.8749 42.0301 13.0642C42.3049 13.2536 42.6713 13.3482 43.1293 13.3482C43.6298 13.3482 44.0177 13.2416 44.2923 13.0281C44.5061 12.8696 44.613 12.6715 44.613 12.4337C44.613 12.1654 44.4723 11.9581 44.1917 11.8117C43.9901 11.7081 43.4558 11.5801 42.5889 11.4276C41.2942 11.2021 40.3953 10.9932 39.8915 10.8009C39.3878 10.6089 38.9632 10.2841 38.6184 9.82653C38.2734 9.3692 38.1009 8.84748 38.1009 8.26186C38.1009 7.62129 38.287 7.06929 38.6595 6.60567C39.032 6.14215 39.5448 5.79586 40.1982 5.5672C40.8516 5.33853 41.7279 5.22405 42.827 5.22405C43.987 5.22405 44.8434 5.31263 45.3961 5.48967C45.9485 5.66682 46.4096 5.94167 46.779 6.31396C47.1483 6.68653 47.4553 7.19034 47.6996 7.8252L44.1641 8.17329C44.0726 7.86186 43.9199 7.63291 43.7061 7.48634C43.413 7.29101 43.0588 7.19329 42.6437 7.19329C42.2223 7.19329 41.9156 7.26805 41.7233 7.41739C41.531 7.56682 41.4347 7.74815 41.4347 7.96148C41.4347 8.19939 41.5568 8.3791 41.8011 8.50101C42.0452 8.62291 42.5764 8.73272 43.3948 8.83034C44.6342 8.97053 45.5564 9.16577 46.1609 9.41596C46.7654 9.66605 47.2279 10.0228 47.5484 10.4863C47.8691 10.9501 48.0292 11.4594 48.0292 12.0143C48.0292 12.5757 47.8598 13.1216 47.521 13.6521C47.1821 14.1829 46.6477 14.6053 45.9181 14.9196C45.1883 15.2334 44.1947 15.3906 42.9368 15.3906C41.16 15.3906 39.8944 15.1374 39.1403 14.6303C38.3862 14.1237 37.9024 13.403 37.6887 12.4689Z" fill="#897F76"/>
<path d="M49.9434 5.44404H53.6711V15.1709H49.9434V5.44404ZM49.9434 1.74376H53.6711V4.2808H49.9434V1.74376Z" fill="#897F76"/>
<path d="M62.6837 10.5546C62.1707 10.7378 61.6364 10.8997 61.0808 11.0401C60.3236 11.2416 59.8444 11.44 59.6429 11.6355C59.4352 11.8369 59.3314 12.0659 59.3314 12.3222C59.3314 12.6154 59.4336 12.8551 59.6382 13.0412C59.8428 13.2276 60.1434 13.3206 60.5404 13.3206C60.9557 13.3206 61.3418 13.2199 61.699 13.0184C62.0563 12.817 62.3096 12.5711 62.4592 12.2812C62.6088 11.9912 62.6837 11.6141 62.6837 11.15V10.5546ZM59.4504 8.59463L55.8876 8.21901C56.022 7.59624 56.2158 7.10624 56.4692 6.7491C56.7224 6.39186 57.0874 6.08196 57.5637 5.81948C57.9056 5.63024 58.3757 5.48367 58.9742 5.37977C59.5725 5.27605 60.2199 5.22405 60.916 5.22405C62.0334 5.22405 62.9309 5.28672 63.6086 5.41186C64.2865 5.5371 64.8511 5.79815 65.3031 6.19491C65.6205 6.46967 65.8711 6.85901 66.0543 7.36272C66.2374 7.86653 66.3289 8.34729 66.3289 8.80529V13.1008C66.3289 13.5588 66.3579 13.9176 66.416 14.1769C66.474 14.4366 66.6006 14.7677 66.7961 15.1707H63.2973C63.1568 14.9204 63.0651 14.7298 63.0226 14.5984C62.9798 14.467 62.9369 14.261 62.8943 13.9801C62.4057 14.4503 61.9203 14.7861 61.4381 14.9876C60.7786 15.2562 60.0123 15.3906 59.1391 15.3906C57.979 15.3906 57.0981 15.122 56.4966 14.5845C55.8951 14.0473 55.5945 13.3847 55.5945 12.5971C55.5945 11.8583 55.8112 11.2507 56.2448 10.7745C56.6784 10.2982 57.4782 9.94415 58.6445 9.71205C60.0426 9.4312 60.9495 9.23434 61.3648 9.12129C61.78 9.00834 62.2196 8.86024 62.6837 8.67701C62.6837 8.21901 62.5889 7.89853 62.3997 7.71529C62.2104 7.53215 61.8776 7.44053 61.4014 7.44053C60.7907 7.44053 60.3327 7.53824 60.0275 7.73367C59.7894 7.88634 59.5971 8.17329 59.4504 8.59463Z" fill="#897F76"/>
</svg>
