<svg width="14" height="14" viewBox="0 0 14 14" fill="none" xmlns="http://www.w3.org/2000/svg">
<path d="M6.99992 1.66732C9.93992 1.66732 12.3333 4.06065 12.3333 7.00065C12.3333 9.94065 9.93992 12.334 6.99992 12.334C4.05992 12.334 1.66659 9.94065 1.66659 7.00065C1.66659 4.06065 4.05992 1.66732 6.99992 1.66732ZM6.99992 0.333984C3.31992 0.333984 0.333252 3.32065 0.333252 7.00065C0.333252 10.6807 3.31992 13.6673 6.99992 13.6673C10.6799 13.6673 13.6666 10.6807 13.6666 7.00065C13.6666 3.32065 10.6799 0.333984 6.99992 0.333984ZM7.66659 7.00065V5.00065C7.66659 4.63398 7.36659 4.33398 6.99992 4.33398C6.63325 4.33398 6.33325 4.63398 6.33325 5.00065V7.00065H5.13992C4.83992 7.00065 4.69325 7.36065 4.90659 7.56732L6.76659 9.42732C6.89992 9.56065 7.10659 9.56065 7.23992 9.42732L9.09992 7.56732C9.30659 7.36065 9.15992 7.00065 8.86659 7.00065H7.66659Z" fill="#6F655C"/>
</svg>
