<svg width="20" height="20" viewBox="0 0 20 20" fill="none" xmlns="http://www.w3.org/2000/svg">
<path d="M10 0.25C8.07164 0.25 6.18657 0.821828 4.58319 1.89317C2.97982 2.96451 1.73013 4.48726 0.992179 6.26884C0.254225 8.05042 0.061142 10.0108 0.437348 11.9021C0.813554 13.7934 1.74215 15.5307 3.10571 16.8943C4.46928 18.2579 6.20656 19.1865 8.09787 19.5627C9.98919 19.9389 11.9496 19.7458 13.7312 19.0078C15.5127 18.2699 17.0355 17.0202 18.1068 15.4168C19.1782 13.8134 19.75 11.9284 19.75 10C19.745 7.41566 18.7162 4.93859 16.8888 3.11118C15.0614 1.28378 12.5843 0.254956 10 0.25ZM14.4438 10.2906C14.4029 10.3815 14.3457 10.4641 14.275 10.5344L11.0969 13.7125C11.0288 13.7825 10.9471 13.8378 10.8568 13.8748C10.7665 13.9119 10.6695 13.9301 10.5719 13.9281C10.4728 13.9303 10.3744 13.9122 10.2826 13.8752C10.1907 13.8381 10.1073 13.7828 10.0375 13.7125C9.89724 13.5719 9.81848 13.3814 9.81848 13.1828C9.81848 12.9842 9.89724 12.7937 10.0375 12.6531L11.9406 10.75H6.25C6.05109 10.75 5.86033 10.671 5.71967 10.5303C5.57902 10.3897 5.5 10.1989 5.5 10C5.5 9.80109 5.57902 9.61032 5.71967 9.46967C5.86033 9.32902 6.05109 9.25 6.25 9.25H11.9406L10.0375 7.34687C9.90823 7.20421 9.83878 7.01729 9.84352 6.82483C9.84826 6.63236 9.92683 6.44909 10.063 6.31296C10.1991 6.17682 10.3824 6.09825 10.5748 6.09351C10.7673 6.08877 10.9542 6.15823 11.0969 6.2875L14.275 9.46563C14.3457 9.53588 14.4029 9.6185 14.4438 9.70938C14.5188 9.89585 14.5188 10.1041 14.4438 10.2906Z" fill="#F37021"/>
</svg>
