<svg width="8" height="12" viewBox="0 0 8 12" fill="none" xmlns="http://www.w3.org/2000/svg">
<path d="M4.27195 0.183777C4.09126 0.160746 3.90841 0.160746 3.72773 0.183777C3.31565 0.2363 2.97236 0.432922 2.63414 0.704541C2.3089 0.965746 1.94387 1.33406 1.49724 1.78471L0.311377 2.9812C0.116988 3.17733 0.1184 3.49391 0.314531 3.6883C0.510663 3.88269 0.827242 3.88127 1.02163 3.68514L2.1865 2.50983C2.65926 2.03283 2.98462 1.70563 3.26031 1.48423C3.3499 1.41228 3.42877 1.35614 3.49984 1.31256L3.49984 11.3332C3.49984 11.6093 3.72369 11.8332 3.99984 11.8332C4.27598 11.8332 4.49984 11.6093 4.49984 11.3332L4.49984 1.31256C4.5709 1.35614 4.64977 1.41228 4.73937 1.48423C5.01505 1.70563 5.34041 2.03283 5.81317 2.50983L6.97804 3.68514C7.17243 3.88128 7.48901 3.88269 7.68514 3.6883C7.88127 3.49391 7.88269 3.17733 7.6883 2.9812L6.50243 1.7847C6.0558 1.33406 5.69078 0.965744 5.36553 0.704542C5.02731 0.432922 4.68402 0.236301 4.27195 0.183777Z" fill="#47392F"/>
</svg>
