<svg width="8" height="12" viewBox="0 0 8 12" fill="none" xmlns="http://www.w3.org/2000/svg">
<path d="M4.49965 0.667969C4.49965 0.391826 4.2758 0.167969 3.99965 0.167969C3.72351 0.167969 3.49965 0.391826 3.49965 0.667969L3.49965 10.6886C3.42859 10.645 3.34972 10.5889 3.26012 10.5169C2.98444 10.2955 2.65908 9.96831 2.18632 9.49131L1.02145 8.316C0.827059 8.11986 0.51048 8.11845 0.314348 8.31284C0.118217 8.50723 0.116805 8.82381 0.311194 9.01994L1.49705 10.2164C1.94368 10.6671 2.30871 11.0354 2.63396 11.2966C2.97218 11.5682 3.31547 11.7648 3.72755 11.8174C3.90823 11.8404 4.09108 11.8404 4.27176 11.8174C4.68384 11.7648 5.02713 11.5682 5.36535 11.2966C5.69059 11.0354 6.05562 10.6671 6.50225 10.2164L7.68812 9.01994C7.8825 8.82381 7.88109 8.50723 7.68496 8.31284C7.48883 8.11845 7.17225 8.11986 6.97786 8.316L5.81299 9.49131C5.34023 9.96831 5.01487 10.2955 4.73918 10.5169C4.64959 10.5889 4.57072 10.645 4.49965 10.6886L4.49965 0.667969Z" fill="#F37021"/>
</svg>
