<svg width="14" height="14" viewBox="0 0 14 14" fill="none" xmlns="http://www.w3.org/2000/svg">
<path d="M6.99967 12.3359C4.05967 12.3359 1.66634 9.9426 1.66634 7.0026C1.66634 4.0626 4.05967 1.66927 6.99967 1.66927C9.93967 1.66927 12.333 4.0626 12.333 7.0026C12.333 9.9426 9.93967 12.3359 6.99967 12.3359ZM6.99967 13.6693C10.6797 13.6693 13.6663 10.6826 13.6663 7.0026C13.6663 3.3226 10.6797 0.335938 6.99967 0.335938C3.31967 0.335938 0.333008 3.3226 0.333008 7.0026C0.333008 10.6826 3.31967 13.6693 6.99967 13.6693ZM6.33301 7.0026V9.0026C6.33301 9.36927 6.63301 9.66927 6.99967 9.66927C7.36634 9.66927 7.66634 9.36927 7.66634 9.0026V7.0026H8.85967C9.15967 7.0026 9.30634 6.6426 9.09301 6.43594L7.23301 4.57594C7.09967 4.4426 6.89301 4.4426 6.75967 4.57594L4.89967 6.43594C4.69301 6.6426 4.83967 7.0026 5.13967 7.0026H6.33301Z" fill="#6F655C"/>
</svg>
