<svg width="17" height="16" viewBox="0 0 17 16" fill="none" xmlns="http://www.w3.org/2000/svg">
<path d="M2.375 16C3.475 16 4.375 15.1 4.375 14V7C4.375 5.9 3.475 5 2.375 5C1.275 5 0.375 5.9 0.375 7V14C0.375 15.1 1.275 16 2.375 16Z" fill="#FFFEFD"/>
<path d="M12.375 11V14C12.375 15.1 13.275 16 14.375 16C15.475 16 16.375 15.1 16.375 14V11C16.375 9.9 15.475 9 14.375 9C13.275 9 12.375 9.9 12.375 11Z" fill="#FFFEFD"/>
<path d="M8.375 16C9.475 16 10.375 15.1 10.375 14V2C10.375 0.9 9.475 0 8.375 0C7.275 0 6.375 0.9 6.375 2V14C6.375 15.1 7.275 16 8.375 16Z" fill="#FFFEFD"/>
</svg>
