<svg width="20" height="14" viewBox="0 0 20 14" fill="none" xmlns="http://www.w3.org/2000/svg">
<path d="M16.25 2.67432H1.875V0.799316C1.875 0.633556 1.80915 0.474585 1.69194 0.357375C1.57473 0.240165 1.41576 0.174316 1.25 0.174316C1.08424 0.174316 0.925268 0.240165 0.808058 0.357375C0.690848 0.474585 0.625 0.633556 0.625 0.799316V13.2993C0.625 13.4651 0.690848 13.624 0.808058 13.7413C0.925268 13.8585 1.08424 13.9243 1.25 13.9243C1.41576 13.9243 1.57473 13.8585 1.69194 13.7413C1.80915 13.624 1.875 13.4651 1.875 13.2993V10.7993H18.125V13.2993C18.125 13.4651 18.1908 13.624 18.3081 13.7413C18.4253 13.8585 18.5842 13.9243 18.75 13.9243C18.9158 13.9243 19.0747 13.8585 19.1919 13.7413C19.3092 13.624 19.375 13.4651 19.375 13.2993V5.79932C19.375 4.97051 19.0458 4.17566 18.4597 3.58961C17.8737 3.00356 17.0788 2.67432 16.25 2.67432ZM1.875 3.92432H7.5V9.54932H1.875V3.92432Z" fill="#F37021"/>
</svg>
