<svg width="11" height="13" viewBox="0 0 11 13" fill="none" xmlns="http://www.w3.org/2000/svg">
<path d="M9.875 1.75H8.5625V1.3125C8.5625 1.19647 8.51641 1.08519 8.43436 1.00314C8.35231 0.921094 8.24103 0.875 8.125 0.875C8.00897 0.875 7.89769 0.921094 7.81564 1.00314C7.73359 1.08519 7.6875 1.19647 7.6875 1.3125V1.75H3.3125V1.3125C3.3125 1.19647 3.26641 1.08519 3.18436 1.00314C3.10231 0.921094 2.99103 0.875 2.875 0.875C2.75897 0.875 2.64769 0.921094 2.56564 1.00314C2.48359 1.08519 2.4375 1.19647 2.4375 1.3125V1.75H1.125C0.892936 1.75 0.670376 1.84219 0.506282 2.00628C0.342187 2.17038 0.25 2.39294 0.25 2.625V11.375C0.25 11.6071 0.342187 11.8296 0.506282 11.9937C0.670376 12.1578 0.892936 12.25 1.125 12.25H9.875C10.1071 12.25 10.3296 12.1578 10.4937 11.9937C10.6578 11.8296 10.75 11.6071 10.75 11.375V2.625C10.75 2.39294 10.6578 2.17038 10.4937 2.00628C10.3296 1.84219 10.1071 1.75 9.875 1.75ZM9.875 4.375H1.125V2.625H2.4375V3.0625C2.4375 3.17853 2.48359 3.28981 2.56564 3.37186C2.64769 3.45391 2.75897 3.5 2.875 3.5C2.99103 3.5 3.10231 3.45391 3.18436 3.37186C3.26641 3.28981 3.3125 3.17853 3.3125 3.0625V2.625H7.6875V3.0625C7.6875 3.17853 7.73359 3.28981 7.81564 3.37186C7.89769 3.45391 8.00897 3.5 8.125 3.5C8.24103 3.5 8.35231 3.45391 8.43436 3.37186C8.51641 3.28981 8.5625 3.17853 8.5625 3.0625V2.625H9.875V4.375Z" fill="#FFFEFD"/>
</svg>
