<svg width="20" height="18" viewBox="0 0 20 18" fill="none" xmlns="http://www.w3.org/2000/svg">
<path d="M17.5 2.25003H14.9031L13.6281 0.337531C13.5603 0.232964 13.4672 0.14721 13.3574 0.0882137C13.2476 0.0292171 13.1246 -0.0011137 13 3.12535e-05H7C6.87536 -0.0011137 6.75245 0.0292171 6.64265 0.0882137C6.53285 0.14721 6.43971 0.232964 6.37188 0.337531L5.09687 2.25003H2.5C1.90402 2.2525 1.33316 2.49034 0.911736 2.91177C0.490313 3.33319 0.252468 3.90405 0.25 4.50003V15C0.252468 15.596 0.490313 16.1669 0.911736 16.5883C1.33316 17.0097 1.90402 17.2476 2.5 17.25H17.5C18.096 17.2476 18.6668 17.0097 19.0883 16.5883C19.5097 16.1669 19.7475 15.596 19.75 15V4.50003C19.7475 3.90405 19.5097 3.33319 19.0883 2.91177C18.6668 2.49034 18.096 2.2525 17.5 2.25003ZM13.375 9.37503C13.375 10.0425 13.1771 10.6951 12.8062 11.2501C12.4354 11.8051 11.9083 12.2377 11.2916 12.4931C10.6749 12.7486 9.99626 12.8154 9.34157 12.6852C8.68688 12.555 8.08552 12.2335 7.61351 11.7615C7.14151 11.2895 6.82007 10.6881 6.68985 10.0335C6.55962 9.37877 6.62646 8.70017 6.88191 8.08347C7.13735 7.46677 7.56993 6.93967 8.12495 6.56882C8.67997 6.19797 9.33249 6.00003 10 6.00003C10.8951 6.00003 11.7535 6.35561 12.3865 6.98855C13.0194 7.62148 13.375 8.47993 13.375 9.37503Z" fill="#FFFEFD"/>
</svg>
