<svg width="14" height="16" viewBox="0 0 14 16" fill="none" xmlns="http://www.w3.org/2000/svg">
<path d="M12.3333 1.99935H11.6666V1.33268C11.6666 0.966016 11.3666 0.666016 10.9999 0.666016C10.6333 0.666016 10.3333 0.966016 10.3333 1.33268V1.99935H3.66659V1.33268C3.66659 0.966016 3.36659 0.666016 2.99992 0.666016C2.63325 0.666016 2.33325 0.966016 2.33325 1.33268V1.99935H1.66659C0.933252 1.99935 0.333252 2.59935 0.333252 3.33268V13.9993C0.333252 14.7327 0.933252 15.3327 1.66659 15.3327H12.3333C13.0666 15.3327 13.6666 14.7327 13.6666 13.9993V3.33268C13.6666 2.59935 13.0666 1.99935 12.3333 1.99935ZM11.6666 13.9993H2.33325C1.96659 13.9993 1.66659 13.6993 1.66659 13.3327V5.33268H12.3333V13.3327C12.3333 13.6993 12.0333 13.9993 11.6666 13.9993Z" fill="#6F655C"/>
</svg>
