<svg width="14" height="14" viewBox="0 0 14 14" fill="none" xmlns="http://www.w3.org/2000/svg">
<path fill-rule="evenodd" clip-rule="evenodd" d="M6.99992 13.6693C10.6818 13.6693 13.6666 10.6845 13.6666 7.0026C13.6666 3.32071 10.6818 0.335938 6.99992 0.335938C3.31802 0.335938 0.333252 3.32071 0.333252 7.0026C0.333252 10.6845 3.31802 13.6693 6.99992 13.6693ZM8.76767 6.1037C8.96294 5.90844 8.96294 5.59186 8.76767 5.3966C8.57241 5.20134 8.25583 5.20134 8.06057 5.3966L6.99991 6.45726L5.93925 5.3966C5.74399 5.20134 5.4274 5.20134 5.23214 5.3966C5.03688 5.59186 5.03688 5.90844 5.23214 6.1037L6.2928 7.16436L5.23214 8.22503C5.03688 8.42029 5.03688 8.73687 5.23214 8.93213C5.4274 9.12739 5.74399 9.12739 5.93925 8.93213L6.99991 7.87147L8.06057 8.93213C8.25583 9.12739 8.57241 9.12739 8.76767 8.93213C8.96294 8.73687 8.96294 8.42029 8.76767 8.22503L7.70701 7.16436L8.76767 6.1037Z" fill="#F93D3D"/>
</svg>
