<svg width="22" height="20" viewBox="0 0 22 20" fill="none" xmlns="http://www.w3.org/2000/svg">
<path d="M20.6094 15.7938C21.1854 14.7185 21.4906 13.519 21.4983 12.2992C21.5059 11.0794 21.216 9.87612 20.6535 8.7937C20.0911 7.71128 19.2731 6.78238 18.2705 6.08754C17.2679 5.39271 16.111 4.95291 14.9 4.80627C14.5013 3.8763 13.9185 3.03663 13.1867 2.3378C12.455 1.63898 11.5894 1.09544 10.6421 0.739921C9.69476 0.384399 8.68529 0.224242 7.67444 0.26909C6.6636 0.313938 5.67228 0.562863 4.76016 1.00088C3.84805 1.4389 3.03399 2.05696 2.367 2.81784C1.70002 3.57872 1.19389 4.4667 0.879085 5.42833C0.564282 6.38995 0.447316 7.40533 0.535228 8.41334C0.62314 9.42136 0.914111 10.4012 1.39063 11.2938L0.809376 13.3188C0.742008 13.544 0.736837 13.7833 0.794412 14.0113C0.851986 14.2392 0.970162 14.4474 1.13641 14.6136C1.30266 14.7799 1.5108 14.898 1.73875 14.9556C1.96671 15.0132 2.20599 15.008 2.43125 14.9406L4.45625 14.3594C5.27867 14.7978 6.17493 15.0806 7.1 15.1938C7.50861 16.1514 8.11214 17.0135 8.87215 17.7251C9.63216 18.4367 10.532 18.9823 11.5144 19.3271C12.4968 19.6719 13.5403 19.8084 14.5783 19.7279C15.6164 19.6473 16.6263 19.3516 17.5438 18.8594L19.5688 19.4406C19.794 19.508 20.0333 19.5132 20.2612 19.4556C20.4892 19.398 20.6973 19.2799 20.8636 19.1136C21.0298 18.9474 21.148 18.7392 21.2056 18.5113C21.2632 18.2833 21.258 18.044 21.1906 17.8188L20.6094 15.7938ZM19.1656 15.3156C19.1111 15.401 19.0753 15.4969 19.0608 15.5972C19.0462 15.6974 19.0532 15.7996 19.0813 15.8969L19.6625 17.9125L17.6469 17.3313C17.5496 17.3032 17.4474 17.2962 17.3472 17.3108C17.2469 17.3253 17.1509 17.3611 17.0656 17.4156C16.3784 17.8212 15.6173 18.086 14.8268 18.1946C14.0362 18.3033 13.2319 18.2537 12.4608 18.0487C11.6896 17.8437 10.9668 17.4874 10.3346 17.0005C9.70238 16.5135 9.1733 15.9058 8.77813 15.2125C10.6214 15.0161 12.3272 14.1456 13.5678 12.7682C14.8085 11.3909 15.4966 9.60374 15.5 7.75002C15.4979 7.30047 15.4571 6.85194 15.3781 6.40939C16.6938 6.7199 17.8662 7.46563 18.705 8.52573C19.5439 9.58582 20.0002 10.8982 20 12.25C19.9987 13.3278 19.7108 14.3859 19.1656 15.3156Z" fill="#FFFEFD"/>
</svg>
