<svg width="14" height="18" viewBox="0 0 14 18" fill="none" xmlns="http://www.w3.org/2000/svg">
<path d="M9.0507 3.37499C9.96737 3.37499 10.7174 2.62499 10.7174 1.70832C10.7174 0.791656 9.96737 0.0416565 9.0507 0.0416565C8.13403 0.0416565 7.38403 0.791656 7.38403 1.70832C7.38403 2.62499 8.13403 3.37499 9.0507 3.37499ZM6.40903 13.375L6.88403 11.2917L8.63403 12.9583V17.125C8.63403 17.5833 9.00903 17.9583 9.46737 17.9583C9.9257 17.9583 10.3007 17.5833 10.3007 17.125V12.425C10.3007 11.9667 10.1174 11.5333 9.78403 11.2167L8.5507 10.0417L9.0507 7.54166C9.94237 8.57499 11.234 9.31666 12.684 9.54999C13.184 9.62499 13.634 9.22499 13.634 8.71666C13.634 8.30832 13.334 7.96666 12.9257 7.89999C11.659 7.69166 10.609 6.94166 10.0507 5.95832L9.21737 4.62499C8.88403 4.12499 8.38403 3.79166 7.8007 3.79166C7.5507 3.79166 7.38403 3.87499 7.13403 3.87499L3.81737 5.27499C3.2007 5.54166 2.8007 6.14166 2.8007 6.81666V8.79166C2.8007 9.24999 3.1757 9.62499 3.63403 9.62499C4.09237 9.62499 4.46737 9.24999 4.46737 8.79166V6.79166L5.96737 6.20832L4.63403 12.9583L1.36737 12.2917C0.917367 12.2 0.475701 12.4917 0.384034 12.9417V12.975C0.292367 13.425 0.584034 13.8667 1.03403 13.9583L4.45903 14.6417C5.34237 14.8167 6.20903 14.2583 6.40903 13.375Z" fill="#6F655C"/>
</svg>
