<svg width="12" height="15" viewBox="0 0 12 15" fill="none" xmlns="http://www.w3.org/2000/svg">
<path d="M11.7437 8.75003C11.7437 10.275 11.1379 11.7376 10.0595 12.8159C8.98118 13.8942 7.51865 14.5 5.99365 14.5C4.46866 14.5 3.00612 13.8942 1.92779 12.8159C0.849454 11.7376 0.243652 10.275 0.243652 8.75003C0.243652 7.30628 0.862402 5.64378 2.08115 3.80628C2.15351 3.69729 2.2657 3.621 2.39365 3.59378C2.52565 3.56776 2.66259 3.5947 2.7749 3.66878L4.7874 5.01253L6.71865 0.962526C6.75259 0.890977 6.80325 0.828642 6.86634 0.780781C6.92943 0.732919 7.00311 0.700934 7.08115 0.687526C7.16072 0.673359 7.24253 0.678448 7.31973 0.70237C7.39693 0.726291 7.46728 0.768349 7.5249 0.825026C8.44365 1.74378 9.49365 2.86253 10.3124 4.16253C11.2749 5.69378 11.7437 7.19378 11.7437 8.75003Z" fill="#F93D3D"/>
</svg>
