<svg width="15" height="15" viewBox="0 0 15 15" fill="none" xmlns="http://www.w3.org/2000/svg">
<path d="M10.4999 3.74998C10.4999 3.89832 10.456 4.04332 10.3735 4.16666C10.2911 4.29 10.174 4.38613 10.037 4.44289C9.89991 4.49966 9.74911 4.51451 9.60362 4.48557C9.45814 4.45663 9.3245 4.3852 9.21961 4.28031C9.11472 4.17542 9.04329 4.04179 9.01435 3.8963C8.98541 3.75081 9.00027 3.60001 9.05703 3.46297C9.1138 3.32593 9.20993 3.20879 9.33326 3.12638C9.4566 3.04397 9.60161 2.99998 9.74994 2.99998C9.94885 2.99998 10.1396 3.079 10.2803 3.21965C10.4209 3.3603 10.4999 3.55107 10.4999 3.74998ZM12.8562 8.96873C11.5812 10.5875 9.53119 11.475 6.76244 11.6L5.46244 14.6937C5.42352 14.7843 5.35902 14.8614 5.27687 14.9158C5.19472 14.9702 5.09847 14.9995 4.99994 15H4.96869C4.86511 14.9945 4.7659 14.9565 4.68512 14.8914C4.60435 14.8264 4.54612 14.7375 4.51869 14.6375L3.59369 11.4062L0.362442 10.4812C0.262204 10.4532 0.173201 10.3947 0.107842 10.3137C0.0424829 10.2327 0.00402641 10.1333 -0.00216573 10.0294C-0.00835786 9.92552 0.018023 9.82229 0.0732986 9.73411C0.128574 9.64592 0.209989 9.57719 0.306192 9.53748L3.39994 8.23748C3.52494 5.46873 4.40619 3.41873 6.03119 2.14373C8.59994 0.118733 12.2437 0.706233 13.2999 0.937483C13.4869 0.977715 13.6584 1.07106 13.7936 1.20631C13.9289 1.34157 14.0222 1.51298 14.0624 1.69998C14.2937 2.75623 14.8812 6.39998 12.8562 8.96873ZM13.0874 1.91248C12.1374 1.71248 8.87494 1.17498 6.64994 2.93123C6.41405 3.11398 6.19637 3.3191 5.99994 3.54373C6.01301 4.19865 6.28196 4.82242 6.74922 5.2815C7.21648 5.74058 7.8449 5.99848 8.49994 5.99998C8.63255 5.99998 8.75973 6.05266 8.8535 6.14643C8.94726 6.2402 8.99994 6.36737 8.99994 6.49998C9.00144 7.15503 9.25934 7.78345 9.71842 8.25071C10.1775 8.71796 10.8013 8.98692 11.4562 8.99998C11.6793 8.80202 11.8843 8.58449 12.0687 8.34998C13.8249 6.12498 13.2874 2.86248 13.0874 1.91248Z" fill="#F37021"/>
</svg>
