<svg width="20" height="20" viewBox="0 0 20 20" fill="none" xmlns="http://www.w3.org/2000/svg">
<path d="M18.1955 12.86L18.9155 12.14C19.3055 11.75 19.3055 11.12 18.9155 10.73L18.8955 10.71C18.5055 10.32 17.8755 10.32 17.4855 10.71L14.6255 13.57L6.05547 5.00001L8.91547 2.14001C9.30547 1.75001 9.30547 1.12001 8.91547 0.730011L8.89547 0.710011C8.50547 0.320011 7.87547 0.320011 7.48547 0.710011L6.76547 1.43001L6.04547 0.710011C5.65547 0.320011 5.01547 0.320011 4.62547 0.710011L3.19547 2.14001L2.47547 1.42001C2.08547 1.03001 1.43547 1.03001 1.04547 1.42001C0.655469 1.81001 0.655469 2.46001 1.04547 2.85001L1.76547 3.57001L0.335469 5.00001C-0.0545312 5.39001 -0.0545312 6.02001 0.335469 6.41001L1.05547 7.13001L0.335469 7.86001C-0.0545312 8.25001 -0.0545312 8.88001 0.335469 9.27001L0.355469 9.29001C0.745469 9.68001 1.37547 9.68001 1.76547 9.29001L4.62547 6.43001L13.1955 15L10.3355 17.86C9.94547 18.25 9.94547 18.88 10.3355 19.27L10.3555 19.29C10.7455 19.68 11.3755 19.68 11.7655 19.29L12.4855 18.57L13.2055 19.29C13.5955 19.68 14.2255 19.68 14.6155 19.29L16.0455 17.86L16.7655 18.58C17.1555 18.97 17.8055 18.97 18.1955 18.58C18.5855 18.19 18.5855 17.54 18.1955 17.15L17.4755 16.43L18.9155 15C19.3055 14.61 19.3055 13.98 18.9155 13.59L18.1955 12.86Z" fill="#FFFEFD"/>
</svg>
