<svg width="24" height="24" viewBox="0 0 24 24" fill="none" xmlns="http://www.w3.org/2000/svg">
<g clip-path="url(#clip0_1077_11063)">
<path d="M12.39 3.14404C12.2813 3.05108 12.143 3 12 3C11.857 3 11.7187 3.05108 11.61 3.14404L3 10.524V19.2C3 19.6774 3.18964 20.1353 3.52721 20.4728C3.86477 20.8104 4.32261 21 4.8 21H9.6C9.75913 21 9.91174 20.9368 10.0243 20.8243C10.1368 20.7118 10.2 20.5592 10.2 20.4V16.8C10.2 16.3226 10.3896 15.8648 10.7272 15.5272C11.0648 15.1897 11.5226 15 12 15C12.4774 15 12.9352 15.1897 13.2728 15.5272C13.6104 15.8648 13.8 16.3226 13.8 16.8V20.4C13.8 20.5592 13.8632 20.7118 13.9757 20.8243C14.0883 20.9368 14.2409 21 14.4 21H19.2C19.6774 21 20.1352 20.8104 20.4728 20.4728C20.8104 20.1353 21 19.6774 21 19.2V10.524L12.39 3.14404Z" fill="#6F655C"/>
</g>
<defs>
<clipPath id="clip0_1077_11063">
<rect width="18" height="18" fill="white" transform="translate(3 3)"/>
</clipPath>
</defs>
</svg>
