<svg width="14" height="12" viewBox="0 0 14 12" fill="none" xmlns="http://www.w3.org/2000/svg">
<path d="M13.75 3.75C13.75 5.6625 12.6437 7.625 10.4625 9.5875C9.47202 10.4779 8.39356 11.2653 7.24375 11.9375C7.16906 11.9785 7.08522 12 7 12C6.91478 12 6.83094 11.9785 6.75625 11.9375C6.55625 11.825 2.98125 9.79375 1.21875 6.88125C1.1954 6.8434 1.18257 6.79999 1.18159 6.75553C1.1806 6.71106 1.1915 6.66714 1.21316 6.62829C1.23481 6.58943 1.26644 6.55706 1.30477 6.53451C1.34311 6.51196 1.38677 6.50005 1.43125 6.5H3.5C3.58309 6.50076 3.66504 6.48054 3.73823 6.44121C3.81143 6.40188 3.87352 6.34471 3.91875 6.275L4.5 5.4L6.08125 7.775C6.14243 7.86619 6.23161 7.93501 6.33533 7.97109C6.43905 8.00716 6.55168 8.00854 6.65625 7.975C6.7653 7.93624 6.85935 7.86406 6.925 7.76875L7.76875 6.5H8.98125C9.111 6.50205 9.23669 6.45482 9.33297 6.36782C9.42925 6.28082 9.48894 6.16054 9.5 6.03125C9.50427 5.96301 9.4945 5.89461 9.4713 5.8303C9.44809 5.76598 9.41194 5.70711 9.36508 5.65732C9.31822 5.60753 9.26164 5.56788 9.19884 5.54082C9.13605 5.51376 9.06838 5.49987 9 5.5H7.5C7.41691 5.49924 7.33496 5.51946 7.26176 5.55879C7.18857 5.59812 7.12648 5.65529 7.08125 5.725L6.5 6.6L4.91875 4.225C4.85757 4.13381 4.76839 4.06499 4.66467 4.02891C4.56095 3.99284 4.44832 3.99146 4.34375 4.025C4.2347 4.06376 4.14065 4.13594 4.075 4.23125L3.23125 5.5H0.7375C0.684469 5.49979 0.632879 5.48272 0.590186 5.45127C0.547493 5.41981 0.515909 5.37559 0.5 5.325C0.338997 4.81531 0.254741 4.28449 0.25 3.75C0.25 2.96294 0.49764 2.19583 0.957842 1.55734C1.41804 0.918841 2.06748 0.441328 2.81415 0.192438C3.56082 -0.0564523 4.36687 -0.0641014 5.11813 0.170574C5.86939 0.40525 6.52776 0.870353 7 1.5C7.47224 0.870353 8.13061 0.40525 8.88187 0.170574C9.63313 -0.0641014 10.4392 -0.0564523 11.1859 0.192438C11.9325 0.441328 12.582 0.918841 13.0422 1.55734C13.5024 2.19583 13.75 2.96294 13.75 3.75Z" fill="#F37021"/>
</svg>
