<svg width="24" height="24" viewBox="0 0 24 24" fill="none" xmlns="http://www.w3.org/2000/svg">
<g clip-path="url(#clip0_1077_1290)">
<path fill-rule="evenodd" clip-rule="evenodd" d="M15.5926 4.24762C16.7932 3.54829 18.2999 4.41323 18.2999 5.80288V8.7361C18.6545 8.7361 19.0056 8.80594 19.3332 8.94164C19.6608 9.07733 19.9584 9.27622 20.2092 9.52694C20.4599 9.77767 20.6588 10.0753 20.7945 10.4029C20.9302 10.7305 21 11.0816 21 11.4362C21 11.7908 20.9302 12.1419 20.7945 12.4695C20.6588 12.7971 20.4599 13.0947 20.2092 13.3455C19.9584 13.5962 19.6608 13.7951 19.3332 13.9308C19.0056 14.0665 18.6545 14.1363 18.2999 14.1363V16.8364C18.2999 18.3197 16.6069 19.1666 15.4198 18.2765L13.5657 16.885C12.5746 16.1419 11.4207 15.6458 10.1996 15.4378V17.9975C10.1997 18.5859 9.98706 19.1545 9.60095 19.5984C9.21484 20.0424 8.68125 20.3319 8.09854 20.4134C7.51582 20.495 6.92327 20.3632 6.43011 20.0422C5.93694 19.7213 5.57641 19.2329 5.41498 18.6671L4.00192 13.7205C3.49341 13.12 3.16249 12.3895 3.04634 11.6113C2.93019 10.833 3.03342 10.0378 3.34443 9.31495C3.65544 8.59213 4.16189 7.97039 4.80687 7.51961C5.45184 7.06883 6.20976 6.80689 6.99544 6.76322L9.71175 6.61202C11.0408 6.53806 12.3332 6.1497 13.4829 5.47887L15.5926 4.24762ZM6.27001 15.1066L7.14574 18.173C7.18789 18.3214 7.28232 18.4496 7.41159 18.5338C7.54086 18.6181 7.69625 18.6527 7.84906 18.6313C8.00187 18.6099 8.14178 18.5339 8.24295 18.4174C8.34412 18.3009 8.39973 18.1518 8.39949 17.9975V15.2884L6.99544 15.2101C6.7511 15.1965 6.50839 15.1619 6.27001 15.1066ZM19.1999 11.4362C19.1999 11.1975 19.1051 10.9686 18.9363 10.7998C18.7675 10.631 18.5386 10.5362 18.2999 10.5362V12.3362C18.5386 12.3362 18.7675 12.2414 18.9363 12.0726C19.1051 11.9038 19.1999 11.6749 19.1999 11.4362Z" fill="#6F655C"/>
</g>
<defs>
<clipPath id="clip0_1077_1290">
<rect width="24" height="24" fill="white"/>
</clipPath>
</defs>
</svg>
