<svg width="10" height="13" viewBox="0 0 10 13" fill="none" xmlns="http://www.w3.org/2000/svg">
<path d="M5 0.09375C3.72409 0.0951974 2.50085 0.602692 1.59865 1.5049C0.696442 2.4071 0.188947 3.63034 0.1875 4.90625C0.1875 9.02422 4.5625 12.1359 4.74844 12.2672C4.82295 12.3168 4.91048 12.3433 5 12.3433C5.08952 12.3433 5.17705 12.3168 5.25156 12.2672C5.4375 12.1359 9.8125 9.02422 9.8125 4.90625C9.81105 3.63034 9.30356 2.4071 8.40135 1.5049C7.49915 0.602692 6.27591 0.0951974 5 0.09375ZM5 3.15625C5.34612 3.15625 5.68446 3.25889 5.97225 3.45118C6.26003 3.64347 6.48434 3.91678 6.61679 4.23655C6.74924 4.55632 6.7839 4.90819 6.71637 5.24766C6.64885 5.58713 6.48218 5.89895 6.23744 6.14369C5.99269 6.38843 5.68088 6.5551 5.34141 6.62262C5.00194 6.69015 4.65007 6.65549 4.3303 6.52304C4.01053 6.39059 3.73722 6.16628 3.54493 5.8785C3.35264 5.59071 3.25 5.25237 3.25 4.90625C3.25 4.44212 3.43437 3.997 3.76256 3.66881C4.09075 3.34062 4.53587 3.15625 5 3.15625Z" fill="#F37021"/>
</svg>
