<svg width="24" height="24" viewBox="0 0 24 24" fill="none" xmlns="http://www.w3.org/2000/svg">
<path d="M21 18.75H3.75V15.3375L9.0375 10.7156L14.55 14.85C14.688 14.9537 14.8576 15.0066 15.0301 14.9997C15.2026 14.9929 15.3675 14.9268 15.4969 14.8125L21.4969 9.5625C21.5707 9.49725 21.631 9.41809 21.6743 9.32954C21.7176 9.24098 21.743 9.14478 21.7491 9.0464C21.7552 8.94803 21.7418 8.84942 21.7098 8.75621C21.6778 8.66299 21.6278 8.57699 21.5625 8.50312C21.4972 8.42926 21.4181 8.36896 21.3295 8.32569C21.241 8.28241 21.1448 8.257 21.0464 8.25091C20.948 8.24482 20.8494 8.25816 20.7562 8.29017C20.663 8.32219 20.577 8.37225 20.5031 8.4375L14.9625 13.2844L9.45 9.15C9.31197 9.04632 9.14239 8.99343 8.96989 9.00026C8.79739 9.0071 8.63253 9.07323 8.50312 9.1875L3.75 13.35V4.5C3.75 4.30109 3.67098 4.11032 3.53033 3.96967C3.38968 3.82902 3.19891 3.75 3 3.75C2.80109 3.75 2.61032 3.82902 2.46967 3.96967C2.32902 4.11032 2.25 4.30109 2.25 4.5V19.5C2.25 19.6989 2.32902 19.8897 2.46967 20.0303C2.61032 20.171 2.80109 20.25 3 20.25H21C21.1989 20.25 21.3897 20.171 21.5303 20.0303C21.671 19.8897 21.75 19.6989 21.75 19.5C21.75 19.3011 21.671 19.1103 21.5303 18.9697C21.3897 18.829 21.1989 18.75 21 18.75Z" fill="#6F655C"/>
</svg>
