<svg width="19" height="20" viewBox="0 0 19 20" fill="none" xmlns="http://www.w3.org/2000/svg">
<path d="M12.625 12.1458C12.625 14.1458 10.125 15.6458 10.125 17.1458H8.125C8.125 15.6458 5.625 14.1458 5.625 12.1458C5.625 10.2158 7.195 8.64578 9.125 8.64578C11.055 8.64578 12.625 10.2158 12.625 12.1458ZM10.125 18.1458H8.125V18.6458C8.125 19.1958 8.575 19.6458 9.125 19.6458C9.675 19.6458 10.125 19.1958 10.125 18.6458V18.1458ZM16.125 11.6458C16.125 13.0358 15.715 14.3358 15.005 15.4258C14.755 15.8158 14.815 16.3358 15.145 16.6658C15.585 17.1058 16.345 17.0458 16.685 16.5158C17.595 15.1158 18.125 13.4458 18.125 11.6458C18.125 9.28578 17.215 7.13578 15.725 5.52578C15.335 5.10578 14.675 5.09578 14.275 5.49578C13.895 5.87578 13.895 6.48578 14.255 6.88578C15.415 8.13578 16.125 9.80578 16.125 11.6458ZM12.775 3.29578L9.985 0.505782C9.665 0.185782 9.125 0.405782 9.125 0.855782V2.64578C4.155 2.64578 0.125 6.67578 0.125 11.6458C0.125 13.4458 0.655 15.1158 1.565 16.5258C1.905 17.0558 2.665 17.1158 3.105 16.6758C3.435 16.3458 3.495 15.8358 3.245 15.4458C1.855 13.2958 1.605 10.3458 3.375 7.44578C4.575 5.49578 6.835 4.45578 9.125 4.64578V6.43578C9.125 6.88578 9.665 7.10578 9.975 6.78578L12.765 3.99578C12.965 3.80578 12.965 3.48578 12.775 3.29578Z" fill="#FFFEFD"/>
</svg>
