<svg width="35" height="35" viewBox="0 0 35 35" fill="none" xmlns="http://www.w3.org/2000/svg">
<path d="M13.2655 7C12.9719 6.70121 12.6066 6.48259 12.2046 6.36498C11.8025 6.24737 11.377 6.23468 10.9687 6.32812C10.5566 6.4192 10.1743 6.61311 9.85734 6.89179C9.54041 7.17046 9.29919 7.52483 9.15615 7.92188L0.734277 31.0625C0.602942 31.4391 0.563046 31.8416 0.617879 32.2367C0.672713 32.6317 0.820705 33.0081 1.04964 33.3347C1.27858 33.6614 1.58191 33.9289 1.93459 34.1152C2.28727 34.3015 2.67919 34.4012 3.07803 34.4062C3.37025 34.4067 3.66056 34.3592 3.9374 34.2656L27.078 25.8438C27.4751 25.7007 27.8294 25.4595 28.1081 25.1426C28.3868 24.8256 28.5807 24.4433 28.6718 24.0312C28.7652 23.6229 28.7525 23.1974 28.6349 22.7953C28.5173 22.3933 28.2987 22.028 27.9999 21.7344L13.2655 7ZM5.96865 23.9688L8.96865 15.7188L19.2812 26.0312L11.0312 29.0312L5.96865 23.9688ZM20.9999 10.25C21.0229 9.40461 21.2253 8.57376 21.5937 7.8125C22.4218 6.15625 23.9843 5.25 25.9999 5.25C27.0468 5.25 27.7187 4.89062 28.1405 4.125C28.3556 3.69145 28.478 3.21784 28.4999 2.73438C28.4999 2.57095 28.5323 2.40915 28.5953 2.25836C28.6583 2.10757 28.7507 1.9708 28.8669 1.85597C28.9832 1.74114 29.1212 1.65054 29.2727 1.58944C29.4243 1.52833 29.5865 1.49793 29.7499 1.5C30.0814 1.5 30.3994 1.6317 30.6338 1.86612C30.8682 2.10054 30.9999 2.41848 30.9999 2.75C30.9999 4.76562 29.6718 7.75 25.9999 7.75C24.953 7.75 24.2812 8.10938 23.8593 8.875C23.6442 9.30855 23.5218 9.78216 23.4999 10.2656C23.4999 10.429 23.4675 10.5908 23.4045 10.7416C23.3415 10.8924 23.2491 11.0292 23.1329 11.144C23.0166 11.2589 22.8786 11.3495 22.7271 11.4106C22.5755 11.4717 22.4133 11.5021 22.2499 11.5C21.9184 11.5 21.6004 11.3683 21.366 11.1339C21.1316 10.8995 20.9999 10.5815 20.9999 10.25ZM17.2499 5.25V1.5C17.2499 1.16848 17.3816 0.850537 17.616 0.616116C17.8504 0.381696 18.1684 0.25 18.4999 0.25C18.8314 0.25 19.1494 0.381696 19.3838 0.616116C19.6182 0.850537 19.7499 1.16848 19.7499 1.5V5.25C19.7499 5.58152 19.6182 5.89946 19.3838 6.13388C19.1494 6.3683 18.8314 6.5 18.4999 6.5C18.1684 6.5 17.8504 6.3683 17.616 6.13388C17.3816 5.89946 17.2499 5.58152 17.2499 5.25ZM33.1405 18.1094C33.3753 18.3464 33.5069 18.6664 33.5069 19C33.5069 19.3336 33.3753 19.6536 33.1405 19.8906C32.9016 20.1217 32.5823 20.2508 32.2499 20.2508C31.9175 20.2508 31.5982 20.1217 31.3593 19.8906L28.8593 17.3906C28.6599 17.1478 28.5581 16.8394 28.5735 16.5256C28.5889 16.2118 28.7205 15.9149 28.9427 15.6928C29.1648 15.4706 29.4617 15.339 29.7755 15.3236C30.0893 15.3082 30.3977 15.41 30.6405 15.6094L33.1405 18.1094ZM33.8905 11.4375L30.1405 12.6875C30.015 12.7309 29.8828 12.7521 29.7499 12.75C29.4526 12.7501 29.165 12.6442 28.9388 12.4513C28.7125 12.2585 28.5624 11.9913 28.5153 11.6978C28.4683 11.4043 28.5274 11.1036 28.6821 10.8497C28.8368 10.5958 29.0769 10.4053 29.3593 10.3125L33.1093 9.0625C33.2652 9.0112 33.4297 8.99112 33.5934 9.00341C33.7572 9.01569 33.9168 9.0601 34.0634 9.1341C34.2099 9.20809 34.3405 9.31023 34.4475 9.43467C34.5546 9.55912 34.6361 9.70343 34.6874 9.85938C34.7387 10.0153 34.7588 10.1798 34.7465 10.3435C34.7342 10.5073 34.6898 10.6669 34.6158 10.8135C34.5418 10.96 34.4397 11.0906 34.3152 11.1976C34.1908 11.3047 34.0465 11.3862 33.8905 11.4375Z" fill="#F37021"/>
</svg>
