<svg width="25" height="25" viewBox="0 0 25 25" fill="none" xmlns="http://www.w3.org/2000/svg">
<path fill-rule="evenodd" clip-rule="evenodd" d="M19.4865 9.79633C19.4865 11.0523 19.8323 11.7925 20.5932 12.6456C21.1699 13.2741 21.3542 14.0808 21.3542 14.956C21.3542 15.8302 21.055 16.6601 20.4556 17.3339C19.6708 18.1417 18.5641 18.6573 17.4346 18.747C15.7979 18.8809 14.1601 18.9937 12.5005 18.9937C10.8399 18.9937 9.20318 18.9263 7.56641 18.747C6.43589 18.6573 5.32919 18.1417 4.54549 17.3339C3.94606 16.6601 3.64584 15.8302 3.64584 14.956C3.64584 14.0808 3.83115 13.2741 4.40676 12.6456C5.1915 11.7925 5.5145 11.0523 5.5145 9.79633V9.3703C5.5145 7.68834 5.95139 6.58852 6.85104 5.51186C8.18861 3.9417 10.3327 3 12.4539 3H12.5471C14.7139 3 16.9273 3.98702 18.2421 5.62466C19.0952 6.67916 19.4865 7.73265 19.4865 9.3703V9.79633ZM9.45175 21.0608C9.45175 20.5573 9.93315 20.3266 10.3783 20.2279C10.8991 20.1222 14.0722 20.1222 14.5929 20.2279C15.0381 20.3266 15.5195 20.5573 15.5195 21.0608C15.4936 21.5402 15.2006 21.9653 14.7958 22.2352C14.2709 22.628 13.655 22.8767 13.011 22.9664C12.6549 23.0107 12.305 23.0117 11.9612 22.9664C11.3163 22.8767 10.7003 22.628 10.1764 22.2342C9.77061 21.9653 9.47763 21.5402 9.45175 21.0608Z" fill="white"/>
<circle cx="18" cy="4" r="3.5" fill="#FFD940" stroke="#F37021"/>
</svg>
