<svg width="14" height="10" viewBox="0 0 14 10" fill="none" xmlns="http://www.w3.org/2000/svg">
<path d="M11.3531 1.48906C10.2156 0.925781 8.71172 0.625 7 0.625C5.28828 0.625 3.78437 0.925781 2.64688 1.48906C1.50938 2.05234 0.875 2.85625 0.875 3.6875V6.3125C0.875 7.14375 1.52031 7.94766 2.64688 8.51094C3.77344 9.07422 5.28828 9.375 7 9.375C8.71172 9.375 10.2156 9.07422 11.3531 8.51094C12.4906 7.94766 13.125 7.14375 13.125 6.3125V3.6875C13.125 2.85625 12.4797 2.05234 11.3531 1.48906ZM6.5625 6.74453V8.49453C5.52344 8.45625 4.64844 8.30312 3.9375 8.08437V6.36719C4.71953 6.58594 5.60547 6.71172 6.5625 6.74453ZM7.4375 6.74453C8.39453 6.71172 9.28047 6.58594 10.0625 6.36719V8.08437C9.35156 8.30312 8.47656 8.45625 7.4375 8.49453V6.74453ZM1.75 6.3125V5.30078C2.02527 5.52993 2.32625 5.7263 2.64688 5.88594L3.0625 6.07188V7.73438C2.19844 7.30781 1.75 6.76641 1.75 6.3125ZM10.9375 7.73438V6.07188L11.3531 5.88594C11.6737 5.7263 11.9747 5.52993 12.25 5.30078V6.3125C12.25 6.76641 11.8016 7.30781 10.9375 7.73438Z" fill="#FFFEFD"/>
</svg>
