<svg width="12" height="12" viewBox="0 0 12 12" fill="none" xmlns="http://www.w3.org/2000/svg">
    <path
        d="M11.2125 4.56563C11.1656 4.41796 11.0751 4.28792 10.953 4.19256C10.8309 4.09721 10.6828 4.04098 10.5281 4.03125L7.74377 3.83906L6.71252 1.2375C6.65621 1.09425 6.55819 0.971205 6.43116 0.884289C6.30413 0.797374 6.15393 0.750592 6.00002 0.75C5.8461 0.750592 5.6959 0.797374 5.56887 0.884289C5.44184 0.971205 5.34383 1.09425 5.28752 1.2375L4.23752 3.85312L1.47189 4.03125C1.31744 4.04161 1.16965 4.09807 1.04764 4.19334C0.925632 4.28861 0.835016 4.4183 0.787517 4.56563C0.738739 4.71521 0.735889 4.87598 0.779335 5.02721C0.82278 5.17843 0.910529 5.31317 1.03127 5.41406L3.15939 7.21406L2.52658 9.70312C2.4828 9.87151 2.49068 10.0492 2.54919 10.213C2.60771 10.3769 2.71416 10.5193 2.8547 10.6219C2.99113 10.7198 3.15366 10.7748 3.3215 10.7798C3.48935 10.7848 3.65487 10.7396 3.79689 10.65L5.99533 9.25781H6.0047L8.37189 10.7531C8.49332 10.832 8.63489 10.8743 8.77971 10.875C8.89795 10.8741 9.0144 10.846 9.12012 10.7931C9.22583 10.7401 9.318 10.6636 9.38952 10.5694C9.46105 10.4753 9.51003 10.366 9.53271 10.2499C9.55538 10.1339 9.55115 10.0142 9.52033 9.9L8.85002 7.17656L10.9688 5.41406C11.0895 5.31317 11.1773 5.17843 11.2207 5.02721C11.2641 4.87598 11.2613 4.71521 11.2125 4.56563Z"
        fill="#F37021" />
</svg>
