<svg width="18" height="18" viewBox="0 0 18 18" fill="none" xmlns="http://www.w3.org/2000/svg">
<path d="M16.9895 15.885L11.7723 10.6679C12.5819 9.62121 13.0199 8.34152 13.0199 6.99554C13.0199 5.38438 12.3911 3.87366 11.254 2.7346C10.117 1.59554 8.60225 0.96875 6.99309 0.96875C5.38394 0.96875 3.86921 1.59754 2.73216 2.7346C1.59309 3.87165 0.966309 5.38438 0.966309 6.99554C0.966309 8.60469 1.5951 10.1194 2.73216 11.2565C3.86921 12.3955 5.38193 13.0223 6.99309 13.0223C8.33908 13.0223 9.61676 12.5844 10.6634 11.7768L15.8806 16.992C15.8959 17.0073 15.9141 17.0194 15.934 17.0277C15.954 17.036 15.9755 17.0402 15.9971 17.0402C16.0188 17.0402 16.0402 17.036 16.0602 17.0277C16.0802 17.0194 16.0983 17.0073 16.1136 16.992L16.9895 16.1181C17.0048 16.1028 17.017 16.0846 17.0253 16.0646C17.0335 16.0446 17.0378 16.0232 17.0378 16.0016C17.0378 15.9799 17.0335 15.9585 17.0253 15.9385C17.017 15.9185 17.0048 15.9003 16.9895 15.885ZM10.1752 10.1777C9.32345 11.0275 8.19443 11.4955 6.99309 11.4955C5.79176 11.4955 4.66274 11.0275 3.81095 10.1777C2.96117 9.32589 2.49309 8.19688 2.49309 6.99554C2.49309 5.7942 2.96117 4.66317 3.81095 3.81339C4.66274 2.96362 5.79176 2.49554 6.99309 2.49554C8.19443 2.49554 9.32546 2.96161 10.1752 3.81339C11.025 4.66518 11.4931 5.7942 11.4931 6.99554C11.4931 8.19688 11.025 9.3279 10.1752 10.1777Z" fill="#6F655C"/>
</svg>
