<svg width="16" height="16" viewBox="0 0 16 16" fill="none" xmlns="http://www.w3.org/2000/svg">
    <path
        d="M8 1.5C6.71442 1.5 5.45772 1.88122 4.3888 2.59545C3.31988 3.30968 2.48676 4.32484 1.99479 5.51256C1.50282 6.70028 1.37409 8.00721 1.6249 9.26809C1.8757 10.529 2.49477 11.6872 3.40381 12.5962C4.31285 13.5052 5.47104 14.1243 6.73192 14.3751C7.99279 14.6259 9.29973 14.4972 10.4874 14.0052C11.6752 13.5132 12.6903 12.6801 13.4046 11.6112C14.1188 10.5423 14.5 9.28558 14.5 8C14.4967 6.27711 13.8108 4.62573 12.5925 3.40746C11.3743 2.18918 9.72289 1.5033 8 1.5ZM10.25 6C10.3983 6 10.5433 6.04399 10.6667 6.1264C10.79 6.20881 10.8861 6.32594 10.9429 6.46299C10.9997 6.60003 11.0145 6.75083 10.9856 6.89632C10.9567 7.0418 10.8852 7.17544 10.7803 7.28033C10.6754 7.38522 10.5418 7.45665 10.3963 7.48559C10.2508 7.51453 10.1 7.49968 9.96299 7.44291C9.82595 7.38614 9.70881 7.29001 9.6264 7.16668C9.54399 7.04334 9.5 6.89834 9.5 6.75C9.5 6.55109 9.57902 6.36032 9.71967 6.21967C9.86033 6.07902 10.0511 6 10.25 6ZM5.75 6C5.89834 6 6.04334 6.04399 6.16668 6.1264C6.29002 6.20881 6.38615 6.32594 6.44291 6.46299C6.49968 6.60003 6.51453 6.75083 6.48559 6.89632C6.45665 7.0418 6.38522 7.17544 6.28033 7.28033C6.17544 7.38522 6.04181 7.45665 5.89632 7.48559C5.75083 7.51453 5.60003 7.49968 5.46299 7.44291C5.32595 7.38614 5.20881 7.29001 5.1264 7.16668C5.04399 7.04334 5 6.89834 5 6.75C5 6.55109 5.07902 6.36032 5.21967 6.21967C5.36032 6.07902 5.55109 6 5.75 6ZM10.85 11.4312C10.7747 11.4769 10.6881 11.5007 10.6 11.5C10.5121 11.5017 10.4255 11.4793 10.3495 11.4352C10.2735 11.3911 10.211 11.3271 10.1688 11.25C9.94855 10.8698 9.63228 10.5542 9.25163 10.3348C8.87099 10.1154 8.43936 9.99986 8 9.99986C7.56065 9.99986 7.12901 10.1154 6.74837 10.3348C6.36773 10.5542 6.05145 10.8698 5.83125 11.25C5.80143 11.3122 5.75908 11.3675 5.70685 11.4125C5.65462 11.4575 5.59365 11.4913 5.52776 11.5116C5.46187 11.5319 5.39249 11.5384 5.32398 11.5306C5.25547 11.5228 5.18931 11.5009 5.12966 11.4663C5.07001 11.4318 5.01816 11.3852 4.97736 11.3296C4.93656 11.274 4.9077 11.2106 4.89258 11.1434C4.87747 11.0761 4.87644 11.0064 4.88955 10.9387C4.90265 10.871 4.92962 10.8068 4.96875 10.75C5.27592 10.2179 5.71776 9.77595 6.24986 9.46871C6.78196 9.16147 7.38557 8.99972 8 8.99972C8.61444 8.99972 9.21804 9.16147 9.75014 9.46871C10.2822 9.77595 10.7241 10.2179 11.0313 10.75C11.0971 10.8645 11.1151 11.0004 11.0811 11.128C11.0472 11.2556 10.9641 11.3647 10.85 11.4312Z"
        fill="#6F655C" />
</svg>
