<svg width="17" height="16" viewBox="0 0 17 16" fill="none" xmlns="http://www.w3.org/2000/svg">
<path d="M9 0.666626C9 0.390484 8.77614 0.166626 8.5 0.166626C8.22386 0.166626 8 0.390484 8 0.666626V1.99996C8 2.2761 8.22386 2.49996 8.5 2.49996C8.77614 2.49996 9 2.2761 9 1.99996V0.666626Z" fill="#F37021"/>
<path d="M3.6681 2.46096C3.47284 2.26569 3.15626 2.26569 2.96099 2.46096C2.76573 2.65622 2.76573 2.9728 2.96099 3.16806L3.9038 4.11087C4.09907 4.30613 4.41565 4.30613 4.61091 4.11087C4.80617 3.91561 4.80617 3.59903 4.61091 3.40376L3.6681 2.46096Z" fill="#F37021"/>
<path d="M14.039 3.16806C14.2343 2.9728 14.2343 2.65622 14.039 2.46096C13.8437 2.26569 13.5272 2.26569 13.3319 2.46096L12.3891 3.40376C12.1938 3.59903 12.1938 3.91561 12.3891 4.11087C12.5843 4.30613 12.9009 4.30613 13.0962 4.11087L14.039 3.16806Z" fill="#F37021"/>
<path d="M8.5 3.49996C6.01472 3.49996 4 5.51468 4 7.99996C4 10.4852 6.01472 12.5 8.5 12.5C10.9853 12.5 13 10.4852 13 7.99996C13 5.51468 10.9853 3.49996 8.5 3.49996Z" fill="#F37021"/>
<path d="M1.16666 7.49996C0.890522 7.49996 0.666664 7.72382 0.666664 7.99996C0.666664 8.2761 0.890522 8.49996 1.16666 8.49996H2.5C2.77614 8.49996 3 8.2761 3 7.99996C3 7.72382 2.77614 7.49996 2.5 7.49996H1.16666Z" fill="#F37021"/>
<path d="M14.5 7.49996C14.2239 7.49996 14 7.72382 14 7.99996C14 8.2761 14.2239 8.49996 14.5 8.49996H15.8333C16.1095 8.49996 16.3333 8.2761 16.3333 7.99996C16.3333 7.72382 16.1095 7.49996 15.8333 7.49996H14.5Z" fill="#F37021"/>
<path d="M4.61091 12.5962C4.80617 12.4009 4.80617 12.0843 4.61091 11.889C4.41565 11.6938 4.09907 11.6938 3.9038 11.889L2.96099 12.8319C2.76573 13.0271 2.76573 13.3437 2.96099 13.539C3.15626 13.7342 3.47284 13.7342 3.6681 13.539L4.61091 12.5962Z" fill="#F37021"/>
<path d="M13.0962 11.889C12.9009 11.6938 12.5843 11.6938 12.3891 11.889C12.1938 12.0843 12.1938 12.4009 12.3891 12.5962L13.3319 13.539C13.5272 13.7342 13.8437 13.7342 14.039 13.539C14.2343 13.3437 14.2343 13.0271 14.039 12.8319L13.0962 11.889Z" fill="#F37021"/>
<path d="M9 14C9 13.7238 8.77614 13.5 8.5 13.5C8.22386 13.5 8 13.7238 8 14V15.3333C8 15.6094 8.22386 15.8333 8.5 15.8333C8.77614 15.8333 9 15.6094 9 15.3333V14Z" fill="#F37021"/>
</svg>
