<svg width="14" height="16" viewBox="0 0 14 16" fill="none" xmlns="http://www.w3.org/2000/svg">
<path d="M3.18263 11.2897C2.47607 11.2897 1.90138 11.0344 1.47044 10.5275C1.0395 10.0206 0.756692 9.26846 0.592004 8.17409C0.349504 6.56128 0.590129 5.2019 1.2695 4.34659C1.6695 3.84284 2.1945 3.55159 2.78763 3.50471C3.29544 3.46409 4.0545 3.67002 4.78763 4.87971C5.24669 5.63721 5.59575 6.64346 5.74544 7.64034C5.92638 8.84377 5.79169 9.72971 5.33357 10.3482C4.96982 10.8394 4.41044 11.1438 3.67075 11.2544C3.50913 11.2781 3.34598 11.2899 3.18263 11.2897ZM4.40669 15.5C3.99388 15.5 3.57544 15.3678 3.19857 15.1138C2.65473 14.7453 2.2783 14.177 2.15107 13.5325C2.062 13.0744 2.11544 12.7103 2.31419 12.4188C2.637 11.9453 3.21638 11.8388 3.8295 11.7256C3.89419 11.7138 3.95982 11.7019 4.02638 11.6891C4.16763 11.6622 4.312 11.6266 4.452 11.5919C4.97638 11.4625 5.51888 11.3285 5.96669 11.6466C6.26638 11.8591 6.43544 12.2203 6.48607 12.7503C6.54357 13.3619 6.41232 13.9722 6.11638 14.4691C5.79794 15.0038 5.32044 15.3572 4.77263 15.4647C4.65207 15.4882 4.52952 15.5001 4.40669 15.5ZM10.8183 8.28971C10.6551 8.28916 10.4921 8.27663 10.3308 8.25221C9.59138 8.14284 9.032 7.83815 8.66825 7.34596C8.21013 6.72752 8.0745 5.8419 8.25638 4.63815C8.40607 3.64034 8.75419 2.63502 9.21107 1.88034C9.94044 0.675025 10.7004 0.465962 11.2111 0.502837C11.8023 0.545962 12.3264 0.83315 12.727 1.33409C13.4111 2.1894 13.6536 3.55284 13.4101 5.17284C13.2454 6.26659 12.9664 7.01502 12.5317 7.52627C12.097 8.03752 11.5248 8.28971 10.8183 8.28971ZM9.59419 12.5C9.47167 12.5 9.34944 12.4882 9.22919 12.4647C8.68044 12.3572 8.20294 12.0038 7.88544 11.4691C7.5895 10.9722 7.45825 10.3619 7.51575 9.75034C7.56575 9.21909 7.7345 8.85909 8.03513 8.64627C8.48294 8.32846 9.02544 8.46221 9.54982 8.5919C9.68982 8.62628 9.83419 8.6619 9.97544 8.68909L10.172 8.72565C10.7854 8.83846 11.3648 8.9444 11.6876 9.41846C11.8864 9.71002 11.9398 10.0747 11.8508 10.5322C11.7236 11.1768 11.3472 11.7452 10.8033 12.1138C10.4242 12.3682 10.0058 12.5 9.59419 12.5Z" fill="#F37021"/>
</svg>
