<svg width="41" height="40" viewBox="0 0 41 40" fill="none" xmlns="http://www.w3.org/2000/svg">
<path d="M9.25 8.75V17.3594C9.25 23.5625 14.2187 28.7031 20.4219 28.75C21.9058 28.7603 23.3771 28.4769 24.7511 27.9162C26.125 27.3554 27.3744 26.5284 28.4274 25.4827C29.4803 24.437 30.316 23.1933 30.8862 21.8233C31.4565 20.4533 31.75 18.984 31.75 17.5V8.75C31.75 8.41848 31.6183 8.10054 31.3839 7.86612C31.1495 7.6317 30.8315 7.5 30.5 7.5H10.5C10.1685 7.5 9.85054 7.6317 9.61612 7.86612C9.3817 8.10054 9.25 8.41848 9.25 8.75Z" stroke="#F37021" stroke-width="2.5" stroke-linecap="round" stroke-linejoin="round"/>
<path d="M15.5 35H25.5" stroke="#F37021" stroke-width="2.5" stroke-linecap="round" stroke-linejoin="round"/>
<path d="M20.5 28.75V35" stroke="#F37021" stroke-width="2.5" stroke-linecap="round" stroke-linejoin="round"/>
<path d="M31.4686 20H32.9999C34.326 20 35.5977 19.4732 36.5354 18.5355C37.4731 17.5979 37.9999 16.3261 37.9999 15V12.5C37.9999 12.1685 37.8682 11.8505 37.6338 11.6161C37.3993 11.3817 37.0814 11.25 36.7499 11.25H31.7499" stroke="#F37021" stroke-width="2.5" stroke-linecap="round" stroke-linejoin="round"/>
<path d="M9.56256 20H7.98444C6.65835 20 5.38658 19.4732 4.4489 18.5355C3.51122 17.5979 2.98444 16.3261 2.98444 15V12.5C2.98444 12.1685 3.11613 11.8505 3.35055 11.6161C3.58497 11.3817 3.90292 11.25 4.23444 11.25H9.23444" stroke="#F37021" stroke-width="2.5" stroke-linecap="round" stroke-linejoin="round"/>
</svg>
