<svg width="8" height="10" viewBox="0 0 8 10" fill="none" xmlns="http://www.w3.org/2000/svg">
<path d="M7.75938 6.73906L4.75 5L7.75938 3.26094C7.806 3.23857 7.8475 3.20681 7.88126 3.16764C7.91502 3.12846 7.94031 3.08273 7.95555 3.03332C7.97079 2.9839 7.97564 2.93187 7.9698 2.88048C7.96397 2.8291 7.94756 2.77948 7.92163 2.73474C7.89569 2.69001 7.86079 2.65111 7.8191 2.62052C7.77741 2.58992 7.72984 2.56827 7.67939 2.55694C7.62893 2.5456 7.57668 2.54483 7.52591 2.55466C7.47514 2.56449 7.42695 2.58471 7.38438 2.61406L4.375 4.34844V0.875C4.375 0.775544 4.33549 0.680161 4.26517 0.609835C4.19484 0.539509 4.09946 0.5 4 0.5C3.90055 0.5 3.80516 0.539509 3.73484 0.609835C3.66451 0.680161 3.625 0.775544 3.625 0.875V4.34844L0.615627 2.61406C0.530521 2.57324 0.433152 2.56602 0.342954 2.59383C0.252756 2.62164 0.176364 2.68245 0.129025 2.76411C0.0816861 2.84577 0.0668828 2.94228 0.0875696 3.03437C0.108257 3.12646 0.162912 3.20737 0.240627 3.26094L3.25 5L0.240627 6.73906C0.155078 6.78901 0.0927647 6.87077 0.0672952 6.9665C0.0418257 7.06223 0.0552691 7.16415 0.104689 7.25C0.136346 7.3078 0.183224 7.35584 0.24024 7.38889C0.297257 7.42194 0.362235 7.43875 0.428127 7.4375C0.494298 7.43881 0.559429 7.4209 0.615627 7.38594L3.625 5.65156V9.125C3.625 9.22446 3.66451 9.31984 3.73484 9.39017C3.80516 9.46049 3.90055 9.5 4 9.5C4.09946 9.5 4.19484 9.46049 4.26517 9.39017C4.33549 9.31984 4.375 9.22446 4.375 9.125V5.65156L7.38438 7.38594C7.44057 7.4209 7.50571 7.43881 7.57188 7.4375C7.63777 7.43875 7.70275 7.42194 7.75976 7.38889C7.81678 7.35584 7.86366 7.3078 7.89531 7.25C7.94474 7.16415 7.95818 7.06223 7.93271 6.9665C7.90724 6.87077 7.84493 6.78901 7.75938 6.73906Z" fill="#F93D3D"/>
</svg>
