<svg width="21" height="20" viewBox="0 0 21 20" fill="none" xmlns="http://www.w3.org/2000/svg">
<path d="M10.865 0C5.345 0 0.875 4.48 0.875 10C0.875 15.52 5.345 20 10.865 20C16.395 20 20.875 15.52 20.875 10C20.875 4.48 16.395 0 10.865 0ZM10.875 18C6.455 18 2.875 14.42 2.875 10C2.875 5.58 6.455 2 10.875 2C15.295 2 18.875 5.58 18.875 10C18.875 14.42 15.295 18 10.875 18ZM10.655 5H10.595C10.195 5 9.875 5.32 9.875 5.72V10.44C9.875 10.79 10.055 11.12 10.365 11.3L14.515 13.79C14.855 13.99 15.295 13.89 15.495 13.55C15.705 13.21 15.595 12.76 15.245 12.56L11.375 10.26V5.72C11.375 5.32 11.055 5 10.655 5Z" fill="#FFFEFD"/>
</svg>
