<svg width="41" height="40" viewBox="0 0 41 40" fill="none" xmlns="http://www.w3.org/2000/svg">
<path d="M33 32.5H8C7.33696 32.5 6.70107 32.2366 6.23223 31.7678C5.76339 31.2989 5.5 30.663 5.5 30V12.5C5.5 11.837 5.76339 11.2011 6.23223 10.7322C6.70107 10.2634 7.33696 10 8 10H13L15.5 6.25H25.5L28 10H33C33.663 10 34.2989 10.2634 34.7678 10.7322C35.2366 11.2011 35.5 11.837 35.5 12.5V30C35.5 30.663 35.2366 31.2989 34.7678 31.7678C34.2989 32.2366 33.663 32.5 33 32.5Z" stroke="#F37021" stroke-width="2" stroke-linecap="round" stroke-linejoin="round"/>
<path d="M20.5 26.25C23.6066 26.25 26.125 23.7316 26.125 20.625C26.125 17.5184 23.6066 15 20.5 15C17.3934 15 14.875 17.5184 14.875 20.625C14.875 23.7316 17.3934 26.25 20.5 26.25Z" stroke="#F37021" stroke-width="2" stroke-linecap="round" stroke-linejoin="round"/>
</svg>
