<svg width="14" height="12" viewBox="0 0 14 12" fill="none" xmlns="http://www.w3.org/2000/svg">
<path d="M13.1955 2.83398C12.9355 2.57398 12.5221 2.57398 12.2621 2.83398L11.6688 3.42065L11.6888 3.04732L9.38214 0.727318C9.1288 0.473984 8.7888 0.333984 8.43547 0.333984H5.5688C5.21547 0.333984 4.87547 0.473984 4.62214 0.727318L2.31547 3.04732L2.33547 3.38065L1.74214 2.80065C1.48213 2.54732 1.0688 2.54732 0.815468 2.80732L0.802135 2.82065C0.548802 3.08065 0.548802 3.50065 0.815468 3.75398L2.1088 5.00065H11.9021L13.1821 3.77398C13.4488 3.52065 13.4555 3.09398 13.1955 2.83398Z" fill="#6F655C"/>
<path d="M2.86213 10.434C2.91547 11.1273 3.49547 11.6673 4.19547 11.6673H9.81547C10.5155 11.6673 11.0955 11.1273 11.1421 10.434L11.4688 6.03398H2.53547L2.86213 10.434Z" fill="#6F655C"/>
</svg>
