<svg width="16" height="22" viewBox="0 0 16 22" fill="none" xmlns="http://www.w3.org/2000/svg">
<path d="M12.4349 4.95314L11.8536 1.72814C11.7899 1.38225 11.6066 1.06976 11.3359 0.845275C11.0651 0.62079 10.7241 0.498584 10.3724 0.500012H5.62862C5.27691 0.498584 4.93588 0.62079 4.66513 0.845275C4.39437 1.06976 4.21111 1.38225 4.14737 1.72814L3.56612 4.95314C2.61665 5.64979 1.84458 6.56024 1.31241 7.61077C0.780241 8.6613 0.50293 9.82238 0.50293 11C0.50293 12.1776 0.780241 13.3387 1.31241 14.3893C1.84458 15.4398 2.61665 16.3502 3.56612 17.0469L4.14737 20.2719C4.21111 20.6178 4.39437 20.9303 4.66513 21.1548C4.93588 21.3792 5.27691 21.5014 5.62862 21.5H10.3724C10.7241 21.5014 11.0651 21.3792 11.3359 21.1548C11.6066 20.9303 11.7899 20.6178 11.8536 20.2719L12.4349 17.0469C13.3843 16.3502 14.1564 15.4398 14.6886 14.3893C15.2207 13.3387 15.4981 12.1776 15.4981 11C15.4981 9.82238 15.2207 8.6613 14.6886 7.61077C14.1564 6.56024 13.3843 5.64979 12.4349 4.95314ZM5.62862 2.00001H10.3724L10.738 4.02501C8.98017 3.32474 7.02082 3.32474 5.26299 4.02501L5.62862 2.00001ZM10.3724 20H5.62862L5.26299 17.975C7.02082 18.6753 8.98017 18.6753 10.738 17.975L10.3724 20ZM11.7505 11.75H8.00049C7.80158 11.75 7.61082 11.671 7.47016 11.5303C7.32951 11.3897 7.25049 11.1989 7.25049 11V7.25001C7.25049 7.0511 7.32951 6.86033 7.47016 6.71968C7.61082 6.57903 7.80158 6.50001 8.00049 6.50001C8.1994 6.50001 8.39017 6.57903 8.53082 6.71968C8.67148 6.86033 8.75049 7.0511 8.75049 7.25001V10.25H11.7505C11.9494 10.25 12.1402 10.329 12.2808 10.4697C12.4215 10.6103 12.5005 10.8011 12.5005 11C12.5005 11.1989 12.4215 11.3897 12.2808 11.5303C12.1402 11.671 11.9494 11.75 11.7505 11.75Z" fill="#F37021"/>
</svg>
