<svg width="22" height="22" viewBox="0 0 22 22" fill="none" xmlns="http://www.w3.org/2000/svg">
<path d="M20.1781 8.6375C19.8219 8.27188 19.4562 7.8875 19.3156 7.55938C19.175 7.23125 19.1844 6.74375 19.175 6.24688C19.1656 5.3375 19.1469 4.29687 18.425 3.575C17.7031 2.85312 16.6625 2.83437 15.7531 2.825C15.2562 2.81562 14.75 2.80625 14.4406 2.68437C14.1312 2.5625 13.7281 2.17813 13.3625 1.82188C12.7156 1.20313 11.975 0.5 11 0.5C10.025 0.5 9.28438 1.20313 8.6375 1.82188C8.27188 2.17813 7.8875 2.54375 7.55938 2.68437C7.23125 2.825 6.74375 2.81562 6.24688 2.825C5.3375 2.83437 4.29687 2.85312 3.575 3.575C2.85312 4.29687 2.83437 5.3375 2.825 6.24688C2.81562 6.74375 2.80625 7.25 2.68437 7.55938C2.5625 7.86875 2.17813 8.27188 1.82188 8.6375C1.20313 9.28438 0.5 10.025 0.5 11C0.5 11.975 1.20313 12.7156 1.82188 13.3625C2.17813 13.7281 2.54375 14.1125 2.68437 14.4406C2.825 14.7687 2.81562 15.2562 2.825 15.7531C2.83437 16.6625 2.85312 17.7031 3.575 18.425C4.29687 19.1469 5.3375 19.1656 6.24688 19.175C6.74375 19.1844 7.25 19.1937 7.55938 19.3156C7.86875 19.4375 8.27188 19.8219 8.6375 20.1781C9.28438 20.7969 10.025 21.5 11 21.5C11.975 21.5 12.7156 20.7969 13.3625 20.1781C13.7281 19.8219 14.1125 19.4562 14.4406 19.3156C14.7687 19.175 15.2562 19.1844 15.7531 19.175C16.6625 19.1656 17.7031 19.1469 18.425 18.425C19.1469 17.7031 19.1656 16.6625 19.175 15.7531C19.1844 15.2562 19.1937 14.75 19.3156 14.4406C19.4375 14.1312 19.8219 13.7281 20.1781 13.3625C20.7969 12.7156 21.5 11.975 21.5 11C21.5 10.025 20.7969 9.28438 20.1781 8.6375ZM10.25 6.5C10.25 6.30109 10.329 6.11032 10.4697 5.96967C10.6103 5.82902 10.8011 5.75 11 5.75C11.1989 5.75 11.3897 5.82902 11.5303 5.96967C11.671 6.11032 11.75 6.30109 11.75 6.5V11.75C11.75 11.9489 11.671 12.1397 11.5303 12.2803C11.3897 12.421 11.1989 12.5 11 12.5C10.8011 12.5 10.6103 12.421 10.4697 12.2803C10.329 12.1397 10.25 11.9489 10.25 11.75V6.5ZM11 16.25C10.7775 16.25 10.56 16.184 10.375 16.0604C10.19 15.9368 10.0458 15.7611 9.96064 15.5555C9.87549 15.35 9.85321 15.1238 9.89662 14.9055C9.94002 14.6873 10.0472 14.4868 10.2045 14.3295C10.3618 14.1722 10.5623 14.065 10.7805 14.0216C10.9988 13.9782 11.225 14.0005 11.4305 14.0856C11.6361 14.1708 11.8118 14.315 11.9354 14.5C12.059 14.685 12.125 14.9025 12.125 15.125C12.125 15.4234 12.0065 15.7095 11.7955 15.9205C11.5845 16.1315 11.2984 16.25 11 16.25Z" fill="#47392F"/>
</svg>
